<?xml version="1.0" encoding="iso-8859-1"?>
<!-- Generator: Adobe Illustrator 16.0.0, SVG Export Plug-In . SVG Version: 6.00 Build 0)  -->
<!DOCTYPE svg PUBLIC "-//W3C//DTD SVG 1.1//EN" "http://www.w3.org/Graphics/SVG/1.1/DTD/svg11.dtd">
<svg version="1.1" id="Capa_1" xmlns="http://www.w3.org/2000/svg" xmlns:xlink="http://www.w3.org/1999/xlink" x="0px" y="0px"
	 width="45.204px" height="45.203px" viewBox="0 0 45.204 45.203" style="enable-background:new 0 0 45.204 45.203;"
	 xml:space="preserve">
<g>
	<g>
		<path d="M17.853,11.396c-5.511,2.097-9.376,7.509-9.376,13.489c0,0.704,0.011,1.582,0.03,2.336h28.189
			c0.018-0.754,0.029-1.632,0.029-2.336c0-5.979-3.864-11.392-9.376-13.489c3.872-0.997,10.878-3.212,12.221-6.468
			c0.44-1.067,0.319-2.21-0.342-3.221c-0.649-0.992-1.62-1.575-2.809-1.688C33.372-0.273,29.146,2.82,26.27,5.341
			c-0.86-1.077-2.184-1.767-3.669-1.767c-1.489,0-2.815,0.693-3.675,1.775C16.052,2.828,11.843-0.27,8.793,0.022
			C7.605,0.134,6.628,0.717,5.98,1.709c-0.66,1.01-0.785,2.153-0.345,3.22C6.978,8.184,13.981,10.399,17.853,11.396z M35.962,3.008
			c0.938-0.03,0.895,0.589,0.825,0.773c-0.53,1.433-4.758,3.194-9.162,4.426C30.513,5.603,34.088,3.066,35.962,3.008z
			 M12.209,25.995c-0.602,0-1.09-0.488-1.09-1.09s0.488-1.089,1.09-1.089c0.601,0,1.089,0.487,1.089,1.089
			S12.81,25.995,12.209,25.995z M18.314,15.758c-2.403,1.638-4.036,3.859-4.597,6.254c-0.108,0.463-0.521,0.775-0.976,0.775
			c-0.076,0-0.153-0.009-0.229-0.026c-0.54-0.126-0.875-0.666-0.749-1.206c0.676-2.886,2.601-5.533,5.421-7.455
			c0.459-0.312,1.083-0.194,1.394,0.264C18.89,14.821,18.771,15.445,18.314,15.758z M9.239,3.008
			c1.875,0.059,5.45,2.595,8.338,5.199c-4.403-1.23-8.631-2.993-9.163-4.426C8.346,3.596,8.302,2.978,9.239,3.008z"/>
		<path d="M41.635,37.853l-0.732-1.727c-0.696-1.624-2.229-2.75-3.966-2.876H8.266c-1.738,0.126-3.27,1.252-3.966,2.876
			l-0.732,1.727c-0.643,1.5,0.457,3.186,2.088,3.186h6.198c-0.011,0.114-0.017,0.23-0.017,0.348c0,2.108,1.709,3.817,3.817,3.817
			c2.108,0,3.817-1.709,3.817-3.817c0-0.117-0.006-0.232-0.017-0.348h20.091C41.178,41.038,42.278,39.353,41.635,37.853z"/>
	</g>
</g>
<g>
</g>
<g>
</g>
<g>
</g>
<g>
</g>
<g>
</g>
<g>
</g>
<g>
</g>
<g>
</g>
<g>
</g>
<g>
</g>
<g>
</g>
<g>
</g>
<g>
</g>
<g>
</g>
<g>
</g>
</svg>
