<?xml version="1.0" encoding="iso-8859-1"?>
<!-- Generator: Adobe Illustrator 19.0.0, SVG Export Plug-In . SVG Version: 6.00 Build 0)  -->
<svg version="1.1" id="Layer_1" xmlns="http://www.w3.org/2000/svg" xmlns:xlink="http://www.w3.org/1999/xlink" x="0px" y="0px"
	 viewBox="0 0 512 512" style="enable-background:new 0 0 512 512;" xml:space="preserve">
<g>
	<g>
		<path d="M303.559,80.039h-15.186c0.08,7.359-2.634,21.838-5.817,33.31c-2.887,10.397-8.648,28.305-17.967,33.554l-0.02,5.658
			h4.789c3.137,0,5.678,2.542,5.678,5.678s-2.542,5.678-5.678,5.678h-4.829l-0.069,19.997c-0.011,3.129-2.551,5.659-5.678,5.659
			c-0.007,0-0.013,0-0.02,0c-3.137-0.011-5.669-2.562-5.659-5.698l0.069-19.958h-4.824c-3.137,0-5.678-2.542-5.678-5.678
			s2.542-5.678,5.678-5.678h4.864l0.02-5.598c-9.392-5.173-15.185-23.178-18.08-33.615c-3.265-11.765-5.895-26.121-5.816-33.31
			h-15.187c-16.527,0-30.742,10.283-36.577,24.783c4.99,7.341,7.91,16.196,7.91,25.722c0,11.797-4.504,22.621-11.87,30.756
			c4.758,0,5.88,0,10.701,0c8.465,0,16.456,2.103,23.491,5.799l0.24-47.678c0.01-1.849,1.512-3.34,3.36-3.335
			c1.848,0.006,3.342,1.504,3.342,3.352v52.048c12.267,9.228,20.255,23.87,20.338,40.328l0.614,122.357
			c0.067,13.144-8.944,24.239-21.13,27.303v37.92c0,11.038,8.948,19.986,19.986,19.986s19.986-8.948,19.986-19.986v-48.767h8.629
			v48.767c0,10.638,8.317,19.309,18.8,19.926c2.656-17.116,10.12-65.173,12.787-82.348c1.766-11.376,4.569-23.238,8.473-34.915
			c0,0-9.967-5.378-9.97-5.379c-11.949-6.447-17.288-20.401-12.696-33.177c4.228-11.767,7.921-22.121,10.989-30.815
			c0.035-2.009,0.252-4.009,0.65-5.97l10.758-52.996v-54.28c0-1.846,1.494-3.345,3.342-3.351c1.847-0.004,3.35,1.485,3.36,3.334
			l0.105,20.773l1.571-7.738c3.084-15.193,11.651-28.187,23.366-37.092C327.481,86.054,316.197,80.039,303.559,80.039z"/>
	</g>
</g>
<g>
	<g>
		<path d="M240.698,80.038c-0.123,7.003,3.11,22.711,6.268,33.31c1.383,4.63,7.373,22.57,11.888,23.771
			c4.51-1.199,10.46-18.976,11.888-23.771c3.674-12.329,6.376-27.169,6.268-33.31C267.848,80.038,249.853,80.038,240.698,80.038z"/>
	</g>
</g>
<g>
	<g>
		<path d="M258.853,0c-19.064,0-34.517,15.455-34.517,34.517c-0.001,19.12,15.535,34.518,34.517,34.518
			c19.007,0,34.517-15.423,34.517-34.517C293.371,15.455,277.916,0,258.853,0z"/>
	</g>
</g>
<g>
	<g>
		<path d="M456.842,456.408l-18.279-117.694c-2.347-15.121-6.718-30.672-11.263-42.033l19.179-13.003
			c6.001-4.068,8.483-11.685,6.034-18.508c-3.507-9.764-7.453-20.815-10.912-30.637c0-0.002,0-0.004,0-0.008
			c0.112-1.92-0.047-3.861-0.391-5.554l-19.134-94.258c-4.789-23.589-25.733-40.709-49.802-40.709s-45.014,17.12-49.804,40.709
			l-19.134,94.258c-0.358,1.765-0.498,3.711-0.39,5.56c-0.026,0.071-0.052,0.147-0.077,0.219
			c-3.661,10.4-7.911,22.284-11.613,32.587c-2.656,7.391,0.491,15.613,7.402,19.343c1.432,0.773,15.988,8.627,18.578,10.025
			c-0.004,0.012-0.009,0.023-0.013,0.036c-5.024,12.943-8.949,27.223-11.24,41.971l-18.279,117.693
			c-2.247,14.468,8.979,27.503,23.548,27.503h18.803v8.105c0,10.523,8.531,19.053,19.053,19.053c10.522,0,19.053-8.53,19.053-19.053
			v-8.105h8.226v8.105c0,10.523,8.531,19.053,19.053,19.053c10.522,0,19.053-8.53,19.053-19.053v-8.105h18.804v0.001
			C447.921,483.91,459.083,470.849,456.842,456.408z M314.236,231.186l19.134-94.258c3.741-18.424,20.1-31.796,38.899-31.796
			s35.157,13.373,38.898,31.796l19.134,94.259c1.305,6.425-3.612,12.421-10.153,12.421h-95.76v0
			C317.834,243.607,312.935,237.601,314.236,231.186z M418.469,264.302l-5.168,3.505c-0.456-0.776-0.903-1.555-1.369-2.326
			l3.606-9.405c0.023,0.065,0.048,0.134,0.07,0.198C416.53,258.868,417.639,261.979,418.469,264.302z M402.8,254.734l-2.938,7.661
			h-55.184l-2.937-7.661H402.8z M332.609,265.481c-0.523,0.865-1.027,1.739-1.538,2.611l-5.325-2.875
			c1.317-3.685,2.294-6.428,3.236-9.079c0.007-0.02,0.015-0.042,0.022-0.063C330.005,258.69,329.284,256.808,332.609,265.481z
			 M433.293,471.536c-28.31,0-93.722,0-122.045,0c-6.977,0-12.404-6.259-11.321-13.23l18.279-117.693
			c3.608-23.232,11.522-45.555,23.293-65.843h61.543c11.773,20.288,19.685,42.611,23.293,65.843l18.279,117.693
			C445.696,465.272,440.31,471.536,433.293,471.536z"/>
	</g>
</g>
<g>
	<g>
		<path d="M139.606,96.027c-19.065,0-34.517,15.456-34.517,34.517c0,13.014,7.264,24.839,18.855,30.756c0.466,0,30.864,0,31.324,0
			c11.448-5.844,18.855-17.588,18.855-30.756C174.123,111.498,158.693,96.027,139.606,96.027z"/>
	</g>
</g>
<g>
	<g>
		<path d="M223.726,211.872c-0.108-21.623-17.791-39.215-39.414-39.215c-11.103,0-78.268,0-89.412,0
			c-21.625,0-39.307,17.593-39.414,39.216L54.871,334.23c-0.047,9.198,7.373,16.692,16.571,16.738c0.029,0,0.058,0,0.087,0
			c9.159,0,16.606-7.402,16.652-16.572l0.616-122.358c0.01-1.849,1.512-3.34,3.36-3.334c1.848,0.006,3.342,1.504,3.342,3.351
			c0,163.8-0.177,16.41-0.177,279.959c0,11.038,8.948,19.986,19.986,19.986s19.986-8.948,19.986-19.986V332.265h8.629v159.749
			c0,11.038,8.948,19.986,19.986,19.986s19.986-8.948,19.986-19.986c0-0.001-0.178-279.958-0.178-279.958
			c0-1.846,1.495-3.345,3.342-3.351c1.848-0.004,3.35,1.486,3.36,3.334l0.614,122.357c0.046,9.17,7.493,16.572,16.652,16.572
			c0.028,0,0.057,0,0.085,0c9.198-0.046,16.618-7.54,16.572-16.738L223.726,211.872z"/>
	</g>
</g>
<g>
</g>
<g>
</g>
<g>
</g>
<g>
</g>
<g>
</g>
<g>
</g>
<g>
</g>
<g>
</g>
<g>
</g>
<g>
</g>
<g>
</g>
<g>
</g>
<g>
</g>
<g>
</g>
<g>
</g>
</svg>
