<?xml version="1.0" encoding="iso-8859-1"?>
<!-- Generator: Adobe Illustrator 19.0.0, SVG Export Plug-In . SVG Version: 6.00 Build 0)  -->
<svg version="1.1" id="Layer_1" xmlns="http://www.w3.org/2000/svg" xmlns:xlink="http://www.w3.org/1999/xlink" x="0px" y="0px"
	 viewBox="0 0 512 512" style="enable-background:new 0 0 512 512;" xml:space="preserve">
<g>
	<g>
		<path d="M454.255,65.127c-5.219-25.707-28.046-44.365-54.276-44.365s-49.058,18.658-54.276,44.365l-12.894,63.52
			c4.666-5.561,9.722-9.464,14.841-12.152l9.938-48.955c4.076-20.079,21.904-34.651,42.392-34.651s38.315,14.572,42.392,34.65
			l9.939,48.955c5.118,2.687,10.175,6.591,14.841,12.152L454.255,65.127z"/>
	</g>
</g>
<g>
	<g>
		<path d="M383.842,122.727c1.913,7.326,8.516,12.488,16.137,12.488c7.749,0,14.264-5.315,16.137-12.487v-0.001
			C405.716,122.727,393.417,122.727,383.842,122.727z"/>
	</g>
</g>
<g>
	<g>
		<path d="M510.943,272.214c-26.43-72.134-42.098-117.394-41.527-115.818c-8.086-22.339-21.353-33.669-39.46-33.669h-3.99v0.001
			c-2.021,12.523-12.901,22.119-25.985,22.119c-13.006,0-23.955-9.54-25.985-22.119v-0.001h-3.99
			c-17.243,0-28.7,10.241-36.137,25.708c-3.079,6.406-2.705,6.616-14.415,39.517c-0.157-31.395-0.154-30.536-0.194-38.736
			c-0.118-23.565-19.388-42.738-42.954-42.738h-16.026c-6.764,18.067-25.942,69.3-32.694,87.339
			c-6.753-18.039-25.931-69.271-32.694-87.339h-16.027c-23.566,0-42.834,19.173-42.953,42.738l-0.08,15.914h20.785
			c6.011,0,11.464,2.397,15.485,6.271l0.11-22.002c0-0.001,0-0.001,0-0.002c0.011-2.013,1.649-3.638,3.662-3.632
			c2.013,0.006,3.641,1.64,3.641,3.652v79.47c12.275,0.056,22.246,10.055,22.246,22.343v29.189v23.505
			c10.427,0.347,19.062,7.874,21.123,17.781V280.42h9.404v86.011h3.778c13.699,0,24.844,11.145,24.844,24.844
			s-11.145,24.844-24.844,24.844h-3.778v38.397c0,12.029,9.751,21.781,21.781,21.781c12.029,0,21.781-9.752,21.781-21.781
			c0-281.624-0.188-132.851-0.194-305.1c0-2.012,1.629-3.647,3.641-3.652c2.012-0.006,3.651,1.619,3.662,3.633
			c0.062,12.347,0.603,120.239,0.669,133.346c0.05,9.993,8.166,18.06,18.148,18.06c0.031,0,0.064,0,0.093,0
			c7.769-0.039,13.198-2.868,16.91-11.839c1.132-2.736,34.049-91.576,34.049-91.576l3.931,10.251
			c-22.399,37.016-27.158,67.811-30.677,90.462l-18.266,117.611c-2.448,15.767,9.786,29.972,25.663,29.972h20.493v8.833
			c0,11.468,9.297,20.764,20.764,20.764c11.468,0,20.764-9.297,20.764-20.764v-8.833h8.965v8.833
			c0,11.468,9.297,20.764,20.764,20.764c11.468,0,20.764-9.297,20.764-20.764v-8.833h20.492c15.938,0,28.108-14.23,25.663-29.973
			c-1.847-11.894-17.98-115.765-19.921-128.263c-4.419-28.457-14.175-55.273-29.022-79.81l3.931-10.252
			c10.556,29.699,24.993,69.435,31.309,86.71c3.271,8.944,13.185,13.602,22.193,10.31
			C509.61,291.125,514.224,281.187,510.943,272.214z M265.218,166.893h-16.847v-7.918h16.847V166.893z M368.1,171.678
			c3.565-3.672,8.545-5.962,14.067-5.962c5.521,0,10.496,2.29,14.056,5.962c1.54,1.589,2.819,3.432,3.757,5.467
			c0.938-2.036,2.217-3.878,3.757-5.467c3.561-3.673,8.535-5.962,14.056-5.962c5.523,0,10.503,2.29,14.068,5.962
			c0.031,0.032,0.062,0.065,0.094,0.098c4.643,4.849,6.059,11.954,3.632,18.215l-5.536,14.285h-60.14l-5.532-14.275
			C361.931,183.69,363.386,176.534,368.1,171.678z M458.899,289.518l19.921,128.263c1.18,7.591-4.69,14.418-12.338,14.418
			c-30.852,0-102.138,0-133.005,0c-7.603,0-13.518-6.82-12.338-14.418l19.921-128.263c3.932-25.318,12.556-49.647,25.386-71.757
			h67.069C446.344,239.871,454.967,264.199,458.899,289.518z"/>
	</g>
</g>
<g>
	<g>
		<path d="M399.979,39.573c-19.806,0-35.862,16.056-35.862,35.862c0,19.874,16.158,35.862,35.862,35.862
			c19.71-0.001,35.862-15.992,35.862-35.862C435.841,55.629,419.785,39.573,399.979,39.573z"/>
	</g>
</g>
<g>
	<g>
		<circle cx="227.58" cy="56.875" r="37.618"/>
	</g>
</g>
<g>
	<g>
		<path d="M241.776,97.739l-14.193,7.804l-14.194-7.804c-1.754-0.964-3.907,0.307-3.907,2.311c0,2.48,0,16.397,0,17.776
			c0,2.001,2.152,3.276,3.907,2.311l14.194-7.804l14.193,7.804c1.754,0.964,3.907-0.308,3.907-2.311c0-1.381,0-15.352,0-17.776
			C245.684,98.048,243.532,96.774,241.776,97.739z"/>
	</g>
</g>
<g>
	<g>
		<circle cx="227.58" cy="131.758" r="4.949"/>
	</g>
</g>
<g>
	<g>
		<circle cx="227.58" cy="155.515" r="4.949"/>
	</g>
</g>
<g>
	<g>
		<path d="M201.006,315.261h-10.593v-24.518c-4.97-2.283-7.882-6.023-11.321-7.482c-3.367-1.428-7.293-1.243-10.505,0.493
			c-4.989,2.7-9.007,8.81-18.938,8.81c-5.69,0-11.186-2.208-16.04-6.473c-5.526-4.856-12.127-4.857-17.658,0
			c-9.542,8.386-22.367,8.387-31.914,0c-5.528-4.858-12.133-4.856-17.659,0c-2.227,1.956-4.679,3.437-7.231,4.484v24.686H48.555
			c-6.187,0-11.002,5.064-11.002,11.002v21.583c1.404,0.825,2.76,1.789,4.041,2.914c5.526,4.855,12.128,4.857,17.658-0.001
			c9.543-8.385,22.368-8.386,31.914,0c5.528,4.858,12.132,4.858,17.658,0c9.545-8.387,22.369-8.386,31.915,0
			c5.526,4.857,12.128,4.858,17.657,0c9.545-8.387,22.369-8.386,31.915,0c5.526,4.857,12.128,4.858,17.657,0l0.103-0.09
			c1.115-0.979,2.381-2.073,3.939-3.035v-21.371C212.008,320.213,207.099,315.261,201.006,315.261z"/>
	</g>
</g>
<g>
	<g>
		<path d="M179.41,240.23h-11.794v-20.985c-0.673,0.46-1.363,0.997-2.094,1.639c-4.771,4.192-10.365,6.289-15.957,6.289
			c-5.593,0.001-11.184-2.096-15.956-6.29c-5.528-4.857-12.132-4.857-17.658,0c-9.546,8.387-22.369,8.387-31.914,0
			c-0.648-0.569-1.353-1.079-2.095-1.533v20.881H70.15c-6.086,0-11.002,4.934-11.002,11.002v26.829
			c0.033-0.029,0.07-0.055,0.103-0.084c9.545-8.385,22.369-8.386,31.914-0.001c5.528,4.858,12.132,4.858,17.658,0.001
			c9.546-8.387,22.369-8.387,31.914,0c3.339,2.932,6.706,4.143,10.32,3.699c4.357-0.536,6.867-4.434,12.393-7.422
			c6.071-3.283,13.497-3.634,19.856-0.935c2.891,1.225,5.128,2.975,7.106,4.538v-26.625
			C190.412,245.29,185.574,240.23,179.41,240.23z"/>
	</g>
</g>
<g>
	<g>
		<path d="M156.615,176.476H92.947c-6.076,0-11.002,4.925-11.002,11.002v20.089c3.269,1.022,6.42,2.74,9.222,5.202
			c5.527,4.857,12.128,4.857,17.658,0c9.543-8.387,22.368-8.387,31.914,0c5.526,4.856,12.127,4.857,17.658,0
			c2.027-1.78,5.071-4.12,9.221-5.437v-19.854C167.617,181.418,162.712,176.476,156.615,176.476z"/>
	</g>
</g>
<g>
	<g>
		<path d="M236.063,377.778h-24.055v-16.583c-9.289,6.075-20.416,5.068-28.827-2.324c-5.528-4.857-12.13-4.858-17.659-0.001
			c-9.542,8.387-22.368,8.387-31.913,0.001c-5.528-4.857-12.13-4.858-17.659-0.001c-9.542,8.387-22.367,8.387-31.914,0
			c-5.528-4.858-12.133-4.856-17.659,0.001c-8.549,7.513-19.727,8.273-28.826,2.324v16.583H13.497
			C6.043,377.778,0,383.821,0,391.276c0,7.443,6.031,13.498,13.498,13.498h22.595v78.891c0,5.013,4.065,9.077,9.077,9.077
			c5.016,0,9.077-4.066,9.077-9.077v-78.891h141.067v78.891c0,5.016,4.067,9.077,9.078,9.077c5.012,0,9.077-4.064,9.077-9.077
			v-78.891h22.595c7.454,0,13.497-6.043,13.497-13.498C249.561,383.821,243.518,377.778,236.063,377.778z"/>
	</g>
</g>
<g>
</g>
<g>
</g>
<g>
</g>
<g>
</g>
<g>
</g>
<g>
</g>
<g>
</g>
<g>
</g>
<g>
</g>
<g>
</g>
<g>
</g>
<g>
</g>
<g>
</g>
<g>
</g>
<g>
</g>
</svg>
