<?xml version="1.0" encoding="iso-8859-1"?>
<!-- Generator: Adobe Illustrator 19.0.0, SVG Export Plug-In . SVG Version: 6.00 Build 0)  -->
<svg version="1.1" id="Layer_1" xmlns="http://www.w3.org/2000/svg" xmlns:xlink="http://www.w3.org/1999/xlink" x="0px" y="0px"
	 viewBox="0 0 512 512" style="enable-background:new 0 0 512 512;" xml:space="preserve">
<g>
	<g>
		<path d="M200.428,149.874h-20.134v-12.612c0-1.212-0.982-2.194-2.194-2.194h-19.405c-1.212,0-2.194,0.982-2.194,2.194v12.612
			h-20.133c-3.336,0-6.039,2.703-6.039,6.039v25.675c17.685,4.022,32.126,17.789,36.708,35.788l8.777-8.784
			c8.167-8.174,20.262-10.476,30.652-6.408v-46.272C206.467,152.577,203.764,149.874,200.428,149.874z M187.96,189.248
			c-4.644,0-34.8,0-39.125,0v-23.555c29.445,0,26.072,0,39.125,0V189.248z"/>
	</g>
</g>
<g>
	<g>
		<path d="M157.824,307.036v83.815c0,5.841,4.735,10.574,10.574,10.574c5.839,0,10.574-4.735,10.574-10.574v-104.55
			C159.399,305.892,160.107,305.333,157.824,307.036z"/>
	</g>
</g>
<g>
	<g>
		<path d="M268.309,403.058l-61.555-144.561l-16.118,16.132l58.215,136.715c2.287,5.372,8.496,7.874,13.873,5.586
			C268.096,414.641,270.598,408.431,268.309,403.058z"/>
	</g>
</g>
<g>
	<g>
		<path d="M77.965,119.18c-17.597,0-31.862,14.265-31.862,31.862c0.001,13.17,7.993,24.472,19.391,29.327c9.283,0,16.179,0,24.944,0
			c11.398-4.853,19.389-16.156,19.389-29.327C109.827,133.445,95.562,119.18,77.965,119.18z"/>
	</g>
</g>
<g>
	<g>
		<path d="M206.899,217.918c-6.006-6.002-15.74-5.997-21.741,0.009l-29.204,29.229l-0.09-17.899
			c-0.103-19.971-16.432-36.197-36.381-36.197H36.948c-19.96,0-36.28,16.239-36.381,36.197L0,342.199
			c-0.043,8.491,6.805,15.408,15.296,15.451c0.027,0,0.053,0,0.079,0c8.455,0,15.329-6.833,15.372-15.296l0.567-112.943
			c0.009-1.638,1.34-2.959,2.976-2.955s2.96,1.332,2.96,2.969c0.001,37.97,0.008,255.525,0.008,258.418
			c0,10.188,8.26,18.448,18.448,18.448c10.229,0,18.448-8.333,18.448-18.448V340.386h7.966v147.458
			c0,10.189,8.26,18.448,18.448,18.448c10.189,0,18.448-8.26,18.448-18.448c0-164.734-0.327-108.811-0.335-258.776
			c0-1.779,1.442-3.221,3.221-3.221s3.222,1.441,3.222,3.22c0,0.113-0.002,0.228-0.008,0.345
			c0.127,25.448,0.153,30.532,0.275,54.773c0.068,13.507,16.53,20.517,26.248,10.788l55.267-55.313
			C212.904,233.658,212.908,223.923,206.899,217.918z"/>
	</g>
</g>
<g>
	<g>
		<path d="M467.524,41.047c-4.019-19.802-21.602-34.175-41.809-34.175c-20.206,0-37.789,14.372-41.81,34.175l-9.933,48.928
			c3.595-4.283,7.49-7.29,11.433-9.36l7.655-37.71c3.14-15.466,16.872-26.692,32.654-26.692s29.516,11.226,32.654,26.692
			l7.655,37.71c3.942,2.07,7.838,5.077,11.432,9.36L467.524,41.047z"/>
	</g>
</g>
<g>
	<g>
		<path d="M413.284,85.415c1.473,5.643,6.561,9.619,12.431,9.619c5.97,0,10.988-4.094,12.431-9.619
			C429.961,85.414,420.624,85.414,413.284,85.415z"/>
	</g>
</g>
<g>
	<g>
		<path d="M511.191,200.565c-4.43-12.106-23.087-63.356-31.567-88.032c-5.276-15.349-14.658-27.118-30.818-27.118h-3.096
			c-1.559,9.643-9.919,17.038-19.996,17.038c-9.812,0-18.401-7.179-19.996-17.038h-3.096c-16.229,0-25.543,11.778-30.818,27.119
			c-2.201,6.404-5.045,14.479-8.121,23.124c-0.037-7.508-0.117-23.39-0.15-29.837c-0.09-18.153-14.933-32.923-33.087-32.923h-12.346
			c-11.381,30.404-6.886,18.393-25.185,67.277c-18.206-48.633-13.895-37.118-25.185-67.277h-12.345
			c-17.882,0-32.76,14.419-33.074,32.51c-0.002,0.138-0.011,0.273-0.012,0.41l-0.516,102.717c0,0.059,0.008,0.115,0.008,0.172
			c0.055,7.645,6.236,13.84,13.904,13.878c0.024,0,0.047,0,0.071,0c7.689,0,13.941-6.214,13.981-13.912l0.516-102.717
			c0.008-1.552,1.269-2.804,2.819-2.799c1.55,0.005,2.805,1.263,2.805,2.814c-0.009,49.271-0.149,128.663-0.149,235.021
			c0,9.266,7.512,16.778,16.779,16.778c9.265,0,16.779-7.511,16.779-16.778V206.887h7.244v134.107
			c0,9.265,7.512,16.778,16.779,16.778c9.265,0,16.779-7.511,16.779-16.778c0-106.57-0.14-185.562-0.149-235.021
			c0-1.55,1.255-2.808,2.805-2.813c1.55-0.004,2.813,1.247,2.819,2.799c0.047,9.516,0.466,92.594,0.516,102.717
			c0.039,7.698,6.29,13.912,13.981,13.912c0.024,0,0.049,0,0.071,0c5.985-0.029,10.243-4.203,13.026-9.121
			c0.991-1.75,14.409-37.292,26.228-70.542l3.028,7.897c-11.436,18.9-18.952,39.557-22.357,61.478
			c-1.921,12.366-13.425,86.438-15.345,98.802c-1.887,12.145,7.538,23.088,19.768,23.088h15.786v6.804
			c0,8.833,7.161,15.994,15.994,15.994s15.994-7.162,15.994-15.994v-6.804h6.906v6.804c0,8.833,7.161,15.994,15.994,15.994
			s15.994-7.162,15.994-15.994v-6.804h15.784c12.279,0,21.651-10.964,19.768-23.088c-1.721-11.082-13.781-88.735-15.345-98.802
			c-3.404-21.921-10.92-42.578-22.357-61.478l3.028-7.897c10.47,29.459,23.945,66.322,24.117,66.793
			c2.527,6.914,10.176,10.468,17.095,7.941C510.197,215.121,513.697,207.426,511.191,200.565z M400.999,123.288
			c0.052-0.055,0.105-0.11,0.158-0.165c2.746-2.828,6.582-4.593,10.837-4.593c4.252,0,8.085,1.764,10.828,4.593
			c1.186,1.224,2.171,2.644,2.894,4.212c0.723-1.568,1.708-2.987,2.894-4.212c2.743-2.829,6.574-4.593,10.828-4.593
			c4.254,0,8.091,1.764,10.837,4.593c0.053,0.055,0.106,0.109,0.158,0.165c3.513,3.729,4.57,9.149,2.718,13.927l-4.271,11.019
			h-46.326l-4.27-11.019C396.43,132.439,397.488,127.014,400.999,123.288z M471.101,213.894l15.345,98.802
			c0.91,5.856-3.623,11.106-9.504,11.106c-23.766,0-78.677,0-102.456,0c-5.856,0-10.413-5.253-9.504-11.106l15.345-98.802
			c3.029-19.502,9.672-38.244,19.555-55.275h51.664C461.429,175.652,468.072,194.392,471.101,213.894z"/>
	</g>
</g>
<g>
	<g>
		<path d="M425.714,21.361c-15.257,0-27.624,12.368-27.624,27.624c0,15.306,12.443,27.624,27.624,27.624
			c15.175,0,27.624-12.311,27.624-27.624C453.338,33.729,440.97,21.361,425.714,21.361z"/>
	</g>
</g>
<g>
	<g>
		<path d="M292.917,5.707c-15.953,0-28.977,12.914-28.977,28.977c0,16.028,13.008,28.977,28.977,28.977
			c15.948,0,28.977-12.915,28.977-28.977C321.894,18.73,308.973,5.707,292.917,5.707z"/>
	</g>
</g>
<g>
	<g>
		<path d="M303.855,66.164c-0.001,0.001-0.003,0.001-0.006,0.002l-10.934,6.012l-10.934-6.012c-0.001-0.001-0.003-0.001-0.006-0.002
			c-1.328-0.725-3.004,0.215-3.004,1.782c0,1.932,0,12.514,0,13.693c0,1.542,1.657,2.524,3.01,1.78l10.934-6.012l10.934,6.012
			c1.352,0.743,3.01-0.237,3.01-1.78c0-1.198,0-11.723,0-13.693C306.859,66.373,305.177,65.442,303.855,66.164z"/>
	</g>
</g>
<g>
	<g>
		<circle cx="292.917" cy="92.372" r="3.813"/>
	</g>
</g>
<g>
	<g>
		<circle cx="292.917" cy="110.667" r="3.813"/>
	</g>
</g>
<g>
</g>
<g>
</g>
<g>
</g>
<g>
</g>
<g>
</g>
<g>
</g>
<g>
</g>
<g>
</g>
<g>
</g>
<g>
</g>
<g>
</g>
<g>
</g>
<g>
</g>
<g>
</g>
<g>
</g>
</svg>
