<?xml version="1.0" encoding="iso-8859-1"?>
<!-- Generator: Adobe Illustrator 19.0.0, SVG Export Plug-In . SVG Version: 6.00 Build 0)  -->
<svg version="1.1" id="Capa_1" xmlns="http://www.w3.org/2000/svg" xmlns:xlink="http://www.w3.org/1999/xlink" x="0px" y="0px"
	 viewBox="0 0 64 64" style="enable-background:new 0 0 64 64;" xml:space="preserve">
<g>
	<path d="M63.836,60.451L41,25.7v-3.449l3.348-6.276c1.131-2.122,1.067-4.62-0.17-6.682C43.23,7.713,41.73,6.627,40,6.203V0h-2
		v6.028c-2.692,0.147-5.067,1.884-6,4.403c-0.934-2.52-3.308-4.256-6-4.403V0h-2v6.096c-1.898,0.303-3.586,1.387-4.641,3.044
		c-1.252,1.966-1.411,4.4-0.426,6.512L22,22.222v3.49L0.153,60.468c-0.193,0.308-0.205,0.697-0.028,1.016
		C0.301,61.802,0.636,62,1,62c0.948,0,1.376,0.332,1.968,0.791C3.663,63.329,4.528,64,6.16,64c1.633,0,2.499-0.67,3.194-1.209
		C9.947,62.332,10.376,62,11.325,62c0.948,0,1.376,0.332,1.969,0.791C13.989,63.33,14.855,64,16.486,64
		c1.633,0,2.499-0.67,3.194-1.209C20.273,62.332,20.702,62,21.651,62s1.378,0.332,1.971,0.791C24.318,63.33,25.184,64,26.817,64
		s2.499-0.67,3.195-1.209C30.606,62.332,31.034,62,31.984,62c0.949,0,1.378,0.332,1.971,0.791C34.651,63.33,35.517,64,37.15,64
		s2.5-0.67,3.196-1.209C40.94,62.332,41.368,62,42.318,62c0.949,0,1.378,0.332,1.971,0.791C44.985,63.33,45.851,64,47.484,64
		s2.5-0.67,3.196-1.209C51.273,62.332,51.702,62,52.653,62c0.952,0,1.381,0.332,1.976,0.791C55.325,63.33,56.192,64,57.827,64
		s2.501-0.67,3.197-1.209C61.619,62.332,62.048,62,63,62c0.367,0,0.706-0.202,0.88-0.525C64.055,61.151,64.037,60.758,63.836,60.451
		z M39,25H24v-2h15V25z M23.553,27h15.908l12.698,19.323c-0.624,0.24-1.093,0.572-1.5,0.868C50.013,47.661,49.546,48,48.495,48
		c-1.052,0-1.519-0.339-2.165-0.809C45.6,46.66,44.691,46,42.99,46s-2.609,0.661-3.339,1.191C39.006,47.661,38.539,48,37.489,48
		c-1.049,0-1.515-0.339-2.159-0.809C34.601,46.661,33.692,46,31.993,46c-1.7,0-2.608,0.661-3.338,1.191
		C28.01,47.661,27.543,48,26.493,48c-1.049,0-1.516-0.339-2.161-0.809C23.603,46.661,22.695,46,20.995,46
		c-1.699,0-2.607,0.661-3.336,1.191C17.014,47.661,16.547,48,15.498,48s-1.516-0.339-2.161-0.809
		c-0.481-0.35-1.044-0.752-1.855-0.988L23.553,27z M21.046,10.214C21.929,8.828,23.437,8,25.08,8h0.558
		c2.125,0,4.016,1.426,4.599,3.469l0.802,2.806C31.161,14.704,31.554,15,32,15c0.446,0,0.839-0.296,0.962-0.725l0.802-2.806
		C34.347,9.426,36.237,8,38.362,8c1.695,0,3.229,0.868,4.101,2.322c0.873,1.454,0.917,3.215,0.119,4.711L39.4,21H23.637
		l-2.891-6.195C20.051,13.316,20.163,11.6,21.046,10.214z M59.802,61.209C59.207,61.668,58.778,62,57.827,62
		c-0.952,0-1.381-0.332-1.976-0.791C55.155,60.67,54.288,60,52.653,60s-2.501,0.67-3.197,1.209C48.863,61.668,48.435,62,47.484,62
		c-0.949,0-1.378-0.332-1.971-0.791C44.817,60.67,43.952,60,42.318,60s-2.5,0.67-3.196,1.209C38.529,61.668,38.101,62,37.15,62
		c-0.949,0-1.378-0.332-1.971-0.791C34.483,60.67,33.618,60,31.984,60c-1.634,0-2.5,0.67-3.196,1.209
		C28.195,61.668,27.767,62,26.817,62s-1.378-0.332-1.971-0.791C24.15,60.67,23.285,60,21.651,60s-2.5,0.67-3.195,1.209
		C17.863,61.668,17.436,62,16.486,62c-0.948,0-1.375-0.332-1.968-0.79c-0.695-0.539-1.56-1.21-3.193-1.21
		c-1.634,0-2.5,0.67-3.195,1.209C7.537,61.668,7.109,62,6.16,62c-0.948,0-1.376-0.332-1.968-0.791
		c-0.415-0.322-0.891-0.691-1.555-0.936l7.697-12.245c0.807,0.07,1.26,0.367,1.827,0.779C12.891,49.339,13.798,50,15.498,50
		s2.608-0.661,3.338-1.191c0.645-0.47,1.11-0.809,2.159-0.809s1.516,0.339,2.161,0.809c0.73,0.53,1.637,1.191,3.337,1.191
		s2.608-0.661,3.338-1.191C30.477,48.339,30.943,48,31.993,48c1.049,0,1.515,0.339,2.159,0.809C34.882,49.339,35.79,50,37.489,50
		c1.7,0,2.608-0.661,3.338-1.191C41.473,48.339,41.94,48,42.99,48c1.051,0,1.518,0.339,2.164,0.809
		c0.73,0.53,1.64,1.191,3.341,1.191s2.609-0.66,3.34-1.191c0.483-0.351,0.866-0.628,1.467-0.747l8.031,12.221
		C60.682,60.528,60.212,60.892,59.802,61.209z"/>
	<circle cx="32" cy="57" r="1"/>
	<circle cx="37" cy="57" r="1"/>
	<circle cx="42" cy="57" r="1"/>
	<circle cx="47" cy="57" r="1"/>
	<circle cx="52" cy="57" r="1"/>
	<circle cx="57" cy="57" r="1"/>
	<circle cx="7" cy="57" r="1"/>
	<circle cx="12" cy="57" r="1"/>
	<circle cx="17" cy="57" r="1"/>
	<circle cx="22" cy="57" r="1"/>
	<circle cx="27" cy="57" r="1"/>
	<circle cx="32" cy="43" r="1"/>
	<circle cx="37" cy="43" r="1"/>
	<circle cx="42" cy="43" r="1"/>
	<circle cx="47" cy="43" r="1"/>
	<circle cx="17" cy="43" r="1"/>
	<circle cx="22" cy="43" r="1"/>
	<circle cx="27" cy="43" r="1"/>
</g>
<g>
</g>
<g>
</g>
<g>
</g>
<g>
</g>
<g>
</g>
<g>
</g>
<g>
</g>
<g>
</g>
<g>
</g>
<g>
</g>
<g>
</g>
<g>
</g>
<g>
</g>
<g>
</g>
<g>
</g>
</svg>
