<?xml version="1.0" encoding="iso-8859-1"?>
<!-- Generator: Adobe Illustrator 19.0.0, SVG Export Plug-In . SVG Version: 6.00 Build 0)  -->
<svg version="1.1" id="Capa_1" xmlns="http://www.w3.org/2000/svg" xmlns:xlink="http://www.w3.org/1999/xlink" x="0px" y="0px"
	 viewBox="0 0 234.123 234.123" style="enable-background:new 0 0 234.123 234.123;" xml:space="preserve">
<path d="M226.113,228.744c-0.157-2.075-3.931-51.104-10.27-74.793c-8.298-31.015-19.674-53.849-34.439-69.809
	c-8.048-8.7-16.679-15.314-27.679-19.858V48.123h-4.618c3.011-6.413,6.827-15.082,7.761-19.675
	c2.173-10.688,1.356-17.904-2.57-22.71c-3.106-3.801-7.945-5.729-14.384-5.729c-5.438,0-11.309,1.885-16.025,3.399
	c-2.49,0.8-5.591,1.795-6.748,1.795c-1.096-0.008-4.074-0.968-6.468-1.738C105.878,1.922,99.911,0,94.197,0
	c-6.503,0-11.355,1.887-14.422,5.607c-3.901,4.732-4.685,11.757-2.542,22.775c0.892,4.586,4.57,13.324,7.447,19.74h-4.954V64.44
	c-10,4.542-19.374,11.177-27.446,19.906c-14.74,15.941-25.856,38.769-34.155,69.786c-6.339,23.692-10.007,72.549-10.162,74.617
	l-0.361,5.373h218.92L226.113,228.744z M138.726,72.273l-22.5-10.261l-22.5,10.261V43.469l22.5,10.261l22.5-10.261V72.273z"/>
<g>
</g>
<g>
</g>
<g>
</g>
<g>
</g>
<g>
</g>
<g>
</g>
<g>
</g>
<g>
</g>
<g>
</g>
<g>
</g>
<g>
</g>
<g>
</g>
<g>
</g>
<g>
</g>
<g>
</g>
</svg>
