<?xml version="1.0" encoding="iso-8859-1"?>
<!-- Generator: Adobe Illustrator 19.0.0, SVG Export Plug-In . SVG Version: 6.00 Build 0)  -->
<svg version="1.1" id="Layer_1" xmlns="http://www.w3.org/2000/svg" xmlns:xlink="http://www.w3.org/1999/xlink" x="0px" y="0px"
	 viewBox="0 0 512 512" style="enable-background:new 0 0 512 512;" xml:space="preserve">
<g>
	<g>
		<path d="M200.041,49.975C194.163,21.018,168.45,0,138.901,0S83.638,21.018,77.759,49.976l-14.525,71.553
			c5.256-6.265,10.953-10.662,16.718-13.689l11.195-55.147c4.591-22.618,24.675-39.034,47.754-39.034
			c23.078,0,43.162,16.417,47.753,39.034l11.196,55.147c5.765,3.027,11.462,7.424,16.718,13.689L200.041,49.975z"/>
	</g>
</g>
<g>
	<g>
		<path d="M120.724,114.857c2.151,8.241,9.58,14.068,18.177,14.068c8.731,0,16.069-5.988,18.177-14.068
			C145.57,114.857,131.241,114.857,120.724,114.857z"/>
	</g>
</g>
<g>
	<g>
		<path d="M220.279,300.412c-4.979-32.057-15.969-62.265-32.693-89.904l4.427-11.547c1.939,5.455,4.025,11.301,6.26,17.541
			c0.003,0.01,0.009,0.019,0.012,0.029c4.179,11.609,17.932,16.409,28.407,10.086c10.666-6.436,19.237-11.608,29.594-17.857
			l-32.586-30.675c-8.53-8.033-11.433-19.802-8.566-30.375c-8.141-19.235-21.401-32.851-42.467-32.851h-4.494
			c-2.277,14.107-14.535,24.917-29.274,24.917c-14.66,0-26.988-10.755-29.274-24.917h-4.494c-23.719,0-37.357,17.218-45.068,39.658
			C46.048,195.3,14.221,282.377,13.901,283.251c-3.696,10.11,1.503,21.302,11.613,24.999c10.108,3.696,21.303-1.502,25-11.613
			c0.252-0.689,19.957-54.597,35.268-97.676l4.427,11.547c-16.724,27.639-27.714,57.847-32.693,89.904
			c-1.264,8.136-21.16,136.237-22.441,144.484c-2.758,17.761,11.023,33.763,28.908,33.763h23.085v9.95
			c0,12.917,10.472,23.389,23.389,23.389c12.917,0,23.389-10.472,23.389-23.389v-9.95h10.099v9.95
			c0,12.917,10.472,23.389,23.389,23.389c12.917,0,23.389-10.472,23.389-23.389v-9.95h23.085c17.956,0,31.662-16.033,28.908-33.763
			C241.437,436.649,221.542,308.549,220.279,300.412z M102.988,170c4.016-4.136,9.626-6.717,15.847-6.717
			c6.219,0,11.823,2.579,15.834,6.717c1.735,1.789,3.175,3.866,4.232,6.159c1.057-2.292,2.497-4.369,4.232-6.159
			c4.01-4.137,9.615-6.717,15.834-6.717c6.221,0,11.831,2.58,15.847,6.717c5.31,5.47,6.948,13.533,4.193,20.641l-6.233,16.08
			h-67.746l-6.232-16.08C96.04,183.533,97.678,175.471,102.988,170z M213.814,463.47c-34.755,0-115.056,0-149.827,0
			c-8.565,0-15.228-7.683-13.898-16.242l22.441-144.485c4.429-28.52,14.145-55.925,28.596-80.832h75.552
			c14.451,24.907,24.165,52.312,28.596,80.832l22.439,144.485C229.04,455.779,222.429,463.47,213.814,463.47z"/>
	</g>
</g>
<g>
	<g>
		<path d="M138.9,21.187c-22.31,0-40.397,18.087-40.397,40.397c0,22.385,18.197,40.397,40.397,40.397
			c22.191,0,40.397-18.003,40.397-40.397C179.297,39.274,161.211,21.187,138.9,21.187z"/>
	</g>
</g>
<g>
	<g>
		<circle cx="402.577" cy="72.146" r="39.4"/>
	</g>
</g>
<g>
	<g>
		<path d="M303.871,74.644h-46.953c-3.419,0-6.192,2.773-6.192,6.193V99.24c0,12.288,7.471,22.832,18.117,27.336v9.789l22.298,20.99
			c0-13.642,0-17.963,0-19.152c0-0.306,0-0.405,0-0.402c0-0.904,0-3.623,0-10.907c11.072-4.306,18.923-15.06,18.923-27.654V80.838
			C310.065,77.417,307.292,74.644,303.871,74.644z"/>
	</g>
</g>
<g>
	<g>
		<path d="M498.589,168.862c-0.124-24.68-20.306-44.76-44.987-44.76h-16.785c-3.887,10.383-29.868,79.79-34.242,91.471
			c-4.384-11.711-30.414-81.246-34.242-91.471h-10.956c-18.721,0-35.778,9.504-45.628,25.423
			c-15.364,24.83-7.317,11.825-16.904,27.317c-40.609-38.229-37.506-35.446-39.38-36.735v-8.784l0.023-0.002
			c0,0-3.268-2.001-6.433-5.904c0.019,0.002,0.038,0.006,0.057,0.008c-5.694-6.791-9.536-15.965-9.536-26.184
			c0-7.534,0-10.77,0-18.402c0-9.562,7.78-17.342,17.342-17.342h17.468v-3.657c0-3.42-2.773-6.193-6.193-6.193h-46.953
			c-3.42,0-6.193,2.773-6.193,6.193v18.402c0,12.288,7.471,22.832,18.117,27.336v35.114c-0.802,0.615-1.575,1.282-2.29,2.041
			c-7.195,7.644-6.833,19.674,0.812,26.871l54.044,50.875c8.78,8.263,22.888,6.355,29.196-3.839
			c31.505-50.913,29.484-47.782,30.568-49.053c1.04-1.22,2.729-1.661,4.233-1.107c1.504,0.554,2.501,1.988,2.501,3.59
			c-0.004,179.92-0.203,23.064-0.203,318.54c0,12.598,10.214,22.811,22.812,22.811s22.812-10.212,22.812-22.811V306.276h9.848
			V488.61c0,12.598,10.214,22.811,22.812,22.811s22.812-10.212,22.812-22.811c0-294.949-0.197-139.138-0.202-319.539
			c0-2.108,1.706-3.819,3.814-3.824c2.108-0.006,3.824,1.696,3.834,3.805l0.701,139.656c0.054,10.467,8.553,18.914,19.008,18.914
			c0.032,0,0.066,0,0.098,0c10.498-0.052,18.967-8.606,18.914-19.105L498.589,168.862z M441.991,187.377h-17.644v-8.293h17.644
			V187.377z"/>
	</g>
</g>
<g>
	<g>
		<path d="M417.441,114.949l-14.865,8.173l-14.865-8.173c-1.837-1.01-4.092,0.321-4.092,2.42c0,2.598,0,17.174,0,18.618
			c0,2.097,2.253,3.431,4.092,2.419l14.865-8.173l14.865,8.173c1.836,1.01,4.092-0.32,4.092-2.419c0-1.447,0-16.079,0-18.618
			C421.533,115.273,419.281,113.939,417.441,114.949z"/>
	</g>
</g>
<g>
	<g>
		<circle cx="402.577" cy="150.577" r="5.183"/>
	</g>
</g>
<g>
	<g>
		<circle cx="402.577" cy="175.451" r="5.183"/>
	</g>
</g>
<g>
</g>
<g>
</g>
<g>
</g>
<g>
</g>
<g>
</g>
<g>
</g>
<g>
</g>
<g>
</g>
<g>
</g>
<g>
</g>
<g>
</g>
<g>
</g>
<g>
</g>
<g>
</g>
<g>
</g>
</svg>
