<?xml version="1.0" encoding="iso-8859-1"?>
<!-- Generator: Adobe Illustrator 18.0.0, SVG Export Plug-In . SVG Version: 6.00 Build 0)  -->
<!DOCTYPE svg PUBLIC "-//W3C//DTD SVG 1.1//EN" "http://www.w3.org/Graphics/SVG/1.1/DTD/svg11.dtd">
<svg version="1.1" id="Capa_1" xmlns="http://www.w3.org/2000/svg" xmlns:xlink="http://www.w3.org/1999/xlink" x="0px" y="0px"
	 viewBox="0 0 477.477 477.477" style="enable-background:new 0 0 477.477 477.477;" xml:space="preserve">
<g>
	<path d="M440.01,241.645l-77.296-33.682V106.488l28.208,19.201c1.723,1.173,3.68,1.734,5.618,1.734c3.198,0,6.34-1.531,8.275-4.374
		c3.108-4.566,1.926-10.786-2.64-13.894L244.366,1.733c-3.396-2.311-7.858-2.311-11.254,0L75.303,109.155
		c-4.565,3.108-5.748,9.328-2.64,13.894c3.108,4.565,9.328,5.747,13.894,2.639l28.207-19.201v101.474l-77.297,33.683
		c-5.063,2.206-7.379,8.099-5.173,13.162c2.206,5.063,8.099,7.377,13.162,5.173l27.62-12.035v219.533c0,5.523,4.477,10,10,10
		h311.326c5.523,0,10-4.477,10-10V247.944l27.62,12.035c1.301,0.567,2.656,0.835,3.99,0.835c3.857,0,7.533-2.245,9.172-6.008
		C447.389,249.744,445.073,243.851,440.01,241.645z M134.764,92.874l103.975-70.777l103.975,70.777v106.374l-99.981-43.567
		c-2.547-1.11-5.442-1.11-7.989,0l-99.979,43.567V92.874z M269.792,457.477h-21.052V336.645
		c12.229,4.171,21.052,15.76,21.052,29.379V457.477z M228.739,457.477h-21.052v-91.454c0-13.618,8.823-25.208,21.052-29.379V457.477
		z M384.401,457.477h-94.61v-91.454c0-28.143-22.902-51.04-51.052-51.04s-51.052,22.896-51.052,51.04v91.454H93.076V239.229
		l145.663-63.473l145.663,63.473V457.477z"/>
	<path d="M228.739,217.893v7.161h-9.132c-5.523,0-10,4.477-10,10s4.477,10,10,10h9.132v36.021c0,5.523,4.477,10,10,10
		s10-4.477,10-10v-36.021h9.132c5.523,0,10-4.477,10-10s-4.477-10-10-10h-9.132v-7.161c0-5.523-4.477-10-10-10
		S228.739,212.37,228.739,217.893z"/>
	<path d="M280.046,94.617c0-22.776-18.53-41.306-41.307-41.306s-41.307,18.53-41.307,41.306c0,22.777,18.53,41.307,41.307,41.307
		S280.046,117.394,280.046,94.617z M217.433,94.617c0-11.748,9.558-21.306,21.307-21.306s21.307,9.558,21.307,21.306
		c0,11.749-9.558,21.307-21.307,21.307S217.433,106.366,217.433,94.617z"/>
	<path d="M147.732,277.051c-16.544,0-30.003,13.457-30.003,29.997v49.435c0,5.523,4.477,10,10,10h40.007c5.523,0,10-4.477,10-10
		v-49.435C177.736,290.507,164.276,277.051,147.732,277.051z M157.736,346.483h-20.007v-39.435c0-5.512,4.487-9.997,10.003-9.997
		s10.003,4.485,10.003,9.997V346.483z"/>
	<path d="M309.743,366.483h40.007c5.523,0,10-4.477,10-10v-49.435c0-16.541-13.459-29.997-30.003-29.997
		s-30.003,13.457-30.003,29.997v49.435C299.743,362.005,304.22,366.483,309.743,366.483z M319.743,307.048
		c0-5.512,4.487-9.997,10.003-9.997s10.003,4.485,10.003,9.997v39.435h-20.007V307.048z"/>
</g>
<g>
</g>
<g>
</g>
<g>
</g>
<g>
</g>
<g>
</g>
<g>
</g>
<g>
</g>
<g>
</g>
<g>
</g>
<g>
</g>
<g>
</g>
<g>
</g>
<g>
</g>
<g>
</g>
<g>
</g>
</svg>
