<?xml version="1.0" encoding="iso-8859-1"?>
<!-- Generator: Adobe Illustrator 17.1.0, SVG Export Plug-In . SVG Version: 6.00 Build 0)  -->
<!DOCTYPE svg PUBLIC "-//W3C//DTD SVG 1.1//EN" "http://www.w3.org/Graphics/SVG/1.1/DTD/svg11.dtd">
<svg version="1.1" id="Capa_1" xmlns="http://www.w3.org/2000/svg" xmlns:xlink="http://www.w3.org/1999/xlink" x="0px" y="0px"
	 viewBox="0 0 223.289 223.289" style="enable-background:new 0 0 223.289 223.289;" xml:space="preserve">
<path d="M185.008,167.205c-0.094-0.106-9.438-10.753-14.891-24.081c-2.453-5.997-3.281-12.053-4.158-18.466
	c-1.064-7.784-2.271-16.606-6.611-26.208c-5.747-12.714-18.226-22.389-25.653-27.293c1.01-2.077,2.146-4.034,3.162-5.106
	c4.749-5.014,6.036-13.969,7.031-23.482c0.094-0.901,0.179-1.721,0.264-2.423c0.62-1.206,3.558-3.711,6.08-5.168
	c2.714-1.549,4.184-4.617,3.689-7.702s-2.85-5.54-5.912-6.162l-13.818-2.807c-0.125-0.033-0.245-0.078-0.373-0.104
	c-1.195-0.247-3.922-1.389-4.658-2.601c-1.962-3.231-4.018-8.693-4.643-10.521C123.482,2.042,120.629,0,117.419,0h-11.55
	c-3.209,0-6.063,2.042-7.099,5.08c-0.622,1.823-2.668,7.269-4.643,10.522c-0.701,1.154-3.236,2.277-4.657,2.6
	c-0.128,0.026-0.248,0.071-0.373,0.104l-13.819,2.807c-3.062,0.622-5.417,3.077-5.912,6.162s0.975,6.153,3.689,7.702
	c2.253,1.285,5.417,3.865,6.081,5.167c0.085,0.702,0.17,1.522,0.265,2.425c0.995,9.514,2.282,18.468,7.031,23.481
	c1.016,1.072,2.152,3.03,3.161,5.105c-7.426,4.905-19.905,14.58-25.652,27.294c-4.341,9.602-5.547,18.425-6.611,26.209
	c-0.877,6.412-1.705,12.469-4.158,18.465c-5.414,13.233-14.802,23.98-14.891,24.081c-2.737,3.095-2.457,7.82,0.629,10.569
	c0.57,0.508,14.194,12.468,34.277,14.947c10.475,1.294,21.403,1.565,28.726,1.565c0.781,0,1.523-0.003,2.231-0.009v7.925H89.979
	c-4.142,0-7.5,3.357-7.5,7.5v6.086c0,4.143,3.358,7.5,7.5,7.5h43.331c4.142,0,7.5-3.357,7.5-7.5v-6.086c0-4.143-3.358-7.5-7.5-7.5
	h-14.166v-7.925c0.708,0.005,1.45,0.009,2.231,0.009c0.001,0,0.001,0,0.003,0c7.323,0,18.25-0.271,28.723-1.565
	c20.083-2.479,33.708-14.439,34.278-14.947C187.465,175.025,187.745,170.3,185.008,167.205z M106.95,23.387
	c1.584-2.609,3.02-5.773,4.094-8.387h1.201c1.074,2.613,2.51,5.777,4.094,8.386c1.31,2.157,3.032,3.841,4.828,5.166
	c-0.234,0.236-0.46,0.466-0.722,0.72l-0.149,0.142c-2.324,2.194-5.396,3.402-8.651,3.402s-6.327-1.208-8.684-3.434l-0.1-0.095
	c-0.268-0.259-0.499-0.495-0.738-0.735C103.919,27.227,105.641,25.544,106.95,23.387z"/>
<g>
</g>
<g>
</g>
<g>
</g>
<g>
</g>
<g>
</g>
<g>
</g>
<g>
</g>
<g>
</g>
<g>
</g>
<g>
</g>
<g>
</g>
<g>
</g>
<g>
</g>
<g>
</g>
<g>
</g>
</svg>
