<?xml version="1.0" encoding="iso-8859-1"?>
<!-- Generator: Adobe Illustrator 19.0.0, SVG Export Plug-In . SVG Version: 6.00 Build 0)  -->
<svg version="1.1" id="Capa_1" xmlns="http://www.w3.org/2000/svg" xmlns:xlink="http://www.w3.org/1999/xlink" x="0px" y="0px"
	 viewBox="0 0 218.312 218.312" style="enable-background:new 0 0 218.312 218.312;" xml:space="preserve">
<path d="M176.625,126.225c-13.701-34.254-36.034-54.336-45.563-61.749l2.815-10.558c2.356-2.014,6.079-5.628,9.272-10.646
	c5.866-9.217,3.786-16.223,3.309-17.535c-0.587-1.617-1.714-2.983-3.19-3.869c-0.222-0.133-0.686-0.398-1.361-0.721V7.5
	c0-4.143-3.358-7.5-7.5-7.5c-4.142,0-7.5,3.357-7.5,7.5v11.501c-2.746,0.439-5.407,1.328-7.945,2.681
	c-4.035,2.152-7.288,4.871-9.806,7.484c-2.518-2.613-5.77-5.332-9.805-7.483c-2.538-1.354-5.198-2.243-7.944-2.682V7.5
	c0-4.143-3.358-7.5-7.5-7.5c-4.142,0-7.5,3.357-7.5,7.5v13.646c-0.677,0.324-1.141,0.589-1.363,0.723
	c-1.475,0.885-2.601,2.251-3.189,3.868c-0.476,1.311-2.556,8.318,3.309,17.535c3.193,5.018,6.916,8.632,9.272,10.646l2.815,10.558
	c-9.529,7.413-31.862,27.495-45.563,61.749c-17.274,43.183-11.458,83.978-11.202,85.694c0.548,3.674,3.704,6.393,7.418,6.393
	h142.506c3.714,0,6.869-2.719,7.417-6.393C188.083,210.204,193.898,169.409,176.625,126.225z"/>
<g>
</g>
<g>
</g>
<g>
</g>
<g>
</g>
<g>
</g>
<g>
</g>
<g>
</g>
<g>
</g>
<g>
</g>
<g>
</g>
<g>
</g>
<g>
</g>
<g>
</g>
<g>
</g>
<g>
</g>
</svg>
