<?xml version="1.0" encoding="iso-8859-1"?>
<!-- Generator: Adobe Illustrator 19.0.0, SVG Export Plug-In . SVG Version: 6.00 Build 0)  -->
<svg version="1.1" id="Layer_1" xmlns="http://www.w3.org/2000/svg" xmlns:xlink="http://www.w3.org/1999/xlink" x="0px" y="0px"
	 viewBox="0 0 480 480" style="enable-background:new 0 0 480 480;" xml:space="preserve">
<g id="XMLID_1801_">
	<g>
		<path d="M419.458,395.37L309.716,157.83c0.141-25.163,2.724-50.402,7.697-75.056l7.597-37.661c0.044-0.22,0.081-0.44,0.11-0.662
			c1.492-11.249-1.933-22.59-9.399-31.112C308.296,4.861,297.587,0,286.341,0c-13.671,0-26.529,7.313-33.558,19.083L240,40.494
			L227.514,19.58C220.399,7.666,207.61,0.164,194.137,0.003C193.979,0.001,193.824,0,193.668,0c-11.17,0-21.802,4.78-29.233,13.161
			c-7.577,8.547-11.06,19.951-9.555,31.29c0.029,0.222,0.066,0.442,0.11,0.662l7.598,37.662c4.973,24.655,7.555,49.894,7.696,75.055
			L60.542,395.37c-12.791,27.688-2.787,60.418,23.273,76.13c9.22,5.561,19.78,8.5,30.537,8.5h251.297
			c10.756,0,21.316-2.939,30.537-8.499C422.245,455.788,432.249,423.059,419.458,395.37z M179.398,26.431
			c3.736-4.214,8.869-6.489,14.499-6.43c6.571,0.079,12.874,3.847,16.448,9.833L228.354,60l-20.82,34.873
			c-2.831,4.742-1.282,10.881,3.458,13.713c4.742,2.831,10.88,1.282,13.711-3.459l45.249-75.79C273.39,23.578,279.67,20,286.34,20
			c5.565,0,10.658,2.314,14.339,6.518c3.603,4.113,5.291,9.566,4.655,15.004l-7.523,37.298c-4.72,23.396-7.396,47.294-7.982,71.181
			H190.17c-0.585-23.885-3.262-47.782-7.981-71.18l-7.524-37.299C174.024,36.04,175.74,30.556,179.398,26.431z M385.86,454.373
			c-6.106,3.681-13.095,5.627-20.212,5.627h-66.914c-60.999-37.3-106.706-95.11-128.833-163.097
			c-1.709-5.251-7.348-8.125-12.603-6.413c-5.25,1.709-8.122,7.353-6.412,12.604c20.454,62.846,59.8,117.536,112.274,156.905H114.35
			c-7.117,0-14.106-1.946-20.212-5.628c-17.313-10.438-23.953-32.197-15.444-50.613L186.69,170h8.349
			c1.644,52.962,16.32,104.769,42.701,150.423c27.204,47.078,66.188,86.704,112.736,114.592c1.609,0.965,3.379,1.424,5.128,1.424
			c3.399,0,6.714-1.734,8.587-4.863c2.838-4.737,1.299-10.879-3.439-13.717C273.631,365.662,218.464,271.376,215.047,170h78.263
			l107.995,233.759C409.813,422.175,403.173,443.934,385.86,454.373z"/>
	</g>
</g>
<g>
</g>
<g>
</g>
<g>
</g>
<g>
</g>
<g>
</g>
<g>
</g>
<g>
</g>
<g>
</g>
<g>
</g>
<g>
</g>
<g>
</g>
<g>
</g>
<g>
</g>
<g>
</g>
<g>
</g>
</svg>
