<?xml version="1.0" encoding="iso-8859-1"?>
<!-- Generator: Adobe Illustrator 19.0.0, SVG Export Plug-In . SVG Version: 6.00 Build 0)  -->
<svg version="1.1" id="Capa_1" xmlns="http://www.w3.org/2000/svg" xmlns:xlink="http://www.w3.org/1999/xlink" x="0px" y="0px"
	 viewBox="0 0 64 64" style="enable-background:new 0 0 64 64;" xml:space="preserve">
<g>
	<path d="M59,23h-1.467c0.245-0.184,0.478-0.382,0.69-0.595c0.863-0.863,1.418-1.693,1.65-2.469c0.27-0.899,0.093-1.747-0.485-2.325
		c-0.579-0.579-1.429-0.756-2.325-0.485c-0.775,0.232-1.605,0.787-2.469,1.65c-0.669,0.669-1.196,1.537-1.595,2.361
		c-0.399-0.824-0.926-1.692-1.595-2.361c-0.863-0.863-1.693-1.418-2.469-1.65c-0.897-0.271-1.746-0.094-2.325,0.485
		c-0.578,0.578-0.756,1.426-0.485,2.325c0.232,0.775,0.787,1.605,1.65,2.469c0.212,0.212,0.445,0.41,0.69,0.595H47
		c-1.13,0-2.162,0.391-3,1.026V19c0-2.757-2.243-5-5-5H27.685c1.928-0.895,4.001-2.104,5.56-3.663
		c1.856-1.856,3.04-3.606,3.519-5.201c0.491-1.638,0.207-3.094-0.8-4.1c-1.006-1.008-2.463-1.292-4.1-0.8
		c-1.595,0.479-3.345,1.662-5.201,3.519C24.417,6,22.893,9.309,22,11.716C21.107,9.309,19.583,6,17.337,3.755
		c-1.856-1.857-3.606-3.04-5.201-3.519c-1.639-0.492-3.095-0.208-4.1,0.8c-1.007,1.006-1.291,2.462-0.8,4.1
		c0.478,1.595,1.662,3.345,3.519,5.201c1.559,1.559,3.631,2.768,5.56,3.663H5c-2.757,0-5,2.243-5,5v40c0,2.757,2.243,5,5,5h10h13h6
		h9h4h12c2.757,0,5-2.243,5-5V28C64,25.243,61.757,23,59,23z M12,48h15v4H12V48z M27,46H12v-5c0-1.654,1.346-3,3-3h12V46z
		 M25.685,33.225c-1.09-1.09-1.48-1.858-1.616-2.313c-0.11-0.366-0.089-0.629,0.062-0.78C24.22,30.044,24.346,30,24.507,30
		c0.116,0,0.252,0.022,0.405,0.069c0.454,0.136,1.223,0.526,2.312,1.616c1.012,1.012,1.749,2.55,2.213,3.752
		C28.235,34.974,26.697,34.236,25.685,33.225z M32.562,35.438c0.464-1.202,1.201-2.74,2.213-3.752c1.09-1.09,1.858-1.48,2.312-1.616
		c0.154-0.048,0.29-0.07,0.406-0.07c0.161,0,0.287,0.044,0.375,0.132c0.151,0.151,0.173,0.414,0.062,0.78
		c-0.136,0.454-0.526,1.223-1.616,2.313C35.303,34.236,33.765,34.974,32.562,35.438z M47,38c1.654,0,3,1.346,3,3v5H35v-8H47z M35,48
		h15v4H35V48z M52,59V41c0-1.13-0.391-2.162-1.026-3H51V25h4v37h-4.026C51.609,61.162,52,60.13,52,59z M56.009,20.19
		c0.821-0.821,1.373-1.072,1.629-1.149C57.729,19.014,57.812,19,57.874,19c0.048,0,0.083,0.009,0.101,0.025
		c0.039,0.039,0.032,0.175-0.016,0.337c-0.077,0.256-0.328,0.808-1.149,1.629c-0.585,0.585-1.418,1.044-2.177,1.378
		C54.978,21.587,55.443,20.756,56.009,20.19z M48.025,19.025C48.043,19.009,48.078,19,48.126,19c0.061,0,0.144,0.014,0.236,0.041
		c0.256,0.077,0.808,0.328,1.629,1.149c0.585,0.585,1.044,1.418,1.378,2.177c-0.782-0.346-1.613-0.811-2.179-1.376
		c-0.821-0.821-1.072-1.373-1.149-1.629C47.993,19.2,47.986,19.065,48.025,19.025z M47,25h2v11.424C48.386,36.154,47.712,36,47,36
		h-3v-8C44,26.346,45.346,25,47,25z M28.077,5.169c2.018-2.017,3.485-2.754,4.361-3.017c0.341-0.102,0.651-0.153,0.933-0.153
		c0.483,0,0.878,0.15,1.179,0.451c0.476,0.476,0.576,1.185,0.298,2.111c-0.263,0.876-0.999,2.344-3.017,4.361
		c-2.329,2.329-6.133,3.849-8.34,4.585C24.227,11.303,25.743,7.503,28.077,5.169z M9.152,4.562C8.874,3.636,8.975,2.926,9.45,2.45
		c0.301-0.301,0.694-0.451,1.178-0.451c0.281,0,0.593,0.051,0.934,0.153c0.876,0.263,2.344,0.999,4.361,3.017
		c2.329,2.329,3.849,6.133,4.585,8.34c-2.205-0.735-6.005-2.252-8.339-4.586C10.151,6.905,9.415,5.438,9.152,4.562z M2,59V19
		c0-1.654,1.346-3,3-3h14.586l-3.293,3.293C16.105,19.48,16,19.734,16,20v4.586l-1.707,1.707l1.414,1.414l2-2
		C17.894,25.52,18,25.266,18,25v-4.586l4-4l4,4V25c0,0.266,0.105,0.52,0.293,0.707l2,2l1.414-1.414L28,24.586V20
		c0-0.266-0.106-0.52-0.293-0.707L24.414,16H39c1.654,0,3,1.346,3,3v9v8h-6.043c0.639-0.392,1.253-0.843,1.771-1.361
		c1.111-1.111,1.824-2.172,2.118-3.152c0.328-1.094,0.128-2.077-0.564-2.768c-0.692-0.692-1.679-0.892-2.769-0.565
		c-0.98,0.294-2.041,1.006-3.152,2.118c-1.042,1.042-1.819,2.461-2.361,3.709c-0.542-1.248-1.319-2.667-2.361-3.709
		c-1.111-1.112-2.172-1.824-3.152-2.118c-1.091-0.327-2.077-0.128-2.768,0.565c-0.692,0.691-0.893,1.675-0.564,2.768
		c0.294,0.981,1.007,2.041,2.118,3.152c0.519,0.519,1.133,0.97,1.771,1.361H15c-2.757,0-5,2.243-5,5v18c0,1.13,0.391,2.162,1.026,3
		H5C3.346,62,2,60.654,2,59z M12,59v-5h15v8H15C13.346,62,12,60.654,12,59z M29,62V38h4v24H29z M43,62h-8v-8h15v5
		c0,1.654-1.346,3-3,3H43z M62,59c0,1.654-1.346,3-3,3h-2V25h2c1.654,0,3,1.346,3,3V59z"/>
	<rect x="52" width="2" height="4"/>
	<rect x="52" y="6" width="2" height="2"/>
	<rect x="52" y="10" width="2" height="4"/>
	<rect x="56" y="6" width="4" height="2"/>
	<rect x="46" y="6" width="4" height="2"/>
	<rect x="4" y="22" width="2" height="2"/>
	<rect x="4" y="26" width="2" height="2"/>
	<rect x="4" y="18" width="2" height="2"/>
</g>
<g>
</g>
<g>
</g>
<g>
</g>
<g>
</g>
<g>
</g>
<g>
</g>
<g>
</g>
<g>
</g>
<g>
</g>
<g>
</g>
<g>
</g>
<g>
</g>
<g>
</g>
<g>
</g>
<g>
</g>
</svg>
