<?xml version="1.0" encoding="iso-8859-1"?>
<!-- Generator: Adobe Illustrator 19.0.0, SVG Export Plug-In . SVG Version: 6.00 Build 0)  -->
<svg version="1.1" id="Capa_1" xmlns="http://www.w3.org/2000/svg" xmlns:xlink="http://www.w3.org/1999/xlink" x="0px" y="0px"
	 viewBox="0 0 382.759 382.759" style="enable-background:new 0 0 382.759 382.759;" xml:space="preserve">
<g id="XMLID_109_">
	<path id="XMLID_110_" d="M185.488,101.276c1.782,1.077,3.825,1.646,5.908,1.646c2.065,0,4.095-0.561,5.867-1.622
		c12.107-7.244,51.611-33.487,51.611-67.035C248.875,15.372,233.504,0,214.609,0c-8.749,0-16.951,3.248-23.229,9.065
		C185.101,3.248,176.899,0,168.15,0c-18.895,0-34.266,15.372-34.266,34.266C133.885,67.526,173.383,93.965,185.488,101.276z"/>
	<path id="XMLID_138_" d="M326.025,333.447l-28.179,6.623l-16.657-70.877c10.941-5.414,20.209-13.794,26.828-24.48
		c9.329-15.061,12.249-32.79,8.222-49.923l-9.325-39.681c-1.962-8.347-9.314-14.177-17.88-14.177c-1.413,0-2.831,0.165-4.216,0.49
		l-80.468,18.912l0.274-1.165c2.318-9.865-3.821-19.777-13.687-22.096l-92.996-21.855c-1.385-0.326-2.803-0.491-4.216-0.491
		c-8.566,0-15.918,5.83-17.88,14.177l-9.325,39.681c-4.027,17.133-1.107,34.863,8.222,49.924
		c6.619,10.686,15.887,19.066,26.828,24.48l-16.657,70.876l-28.179-6.623l-6.863,29.204l85.563,20.108l6.863-29.204l-28.179-6.622
		l16.656-70.873c0.02,0,0.04,0.002,0.059,0.002c0.002,0,0.003,0,0.005,0c14.648,0,29.136-5.008,40.79-14.102
		c5.74-4.479,10.664-9.872,14.613-15.893l1.22,5.191c3.421,14.559,11.827,27.666,23.669,36.905
		c11.655,9.094,26.144,14.103,40.795,14.103c0.02,0,0.04-0.002,0.06-0.002l16.656,70.873l-28.179,6.622l6.863,29.204l85.563-20.108
		L326.025,333.447z"/>
</g>
<g>
</g>
<g>
</g>
<g>
</g>
<g>
</g>
<g>
</g>
<g>
</g>
<g>
</g>
<g>
</g>
<g>
</g>
<g>
</g>
<g>
</g>
<g>
</g>
<g>
</g>
<g>
</g>
<g>
</g>
</svg>
