<?xml version="1.0" encoding="iso-8859-1"?>
<!-- Generator: Adobe Illustrator 19.0.0, SVG Export Plug-In . SVG Version: 6.00 Build 0)  -->
<svg version="1.1" id="Capa_1" xmlns="http://www.w3.org/2000/svg" xmlns:xlink="http://www.w3.org/1999/xlink" x="0px" y="0px"
	 viewBox="0 0 64 64" style="enable-background:new 0 0 64 64;" xml:space="preserve">
<g>
	<path d="M32,27c6.065,0,11-4.935,11-11S38.065,5,32,5S21,9.935,21,16S25.935,27,32,27z M32,7c4.962,0,9,4.038,9,9s-4.038,9-9,9
		s-9-4.038-9-9S27.038,7,32,7z"/>
	<path d="M63.599,4.199C63.347,4.01,63.02,3.951,62.718,4.04L46.535,8.8C44.238,3.075,39.279,0,32,0
		c-4.927,0-8.784,1.418-11.483,4.101L0.713,10.042C0.29,10.169,0,10.559,0,11v52c0,0.313,0.147,0.609,0.398,0.799
		C0.573,63.931,0.785,64,1,64c0.092,0,0.185-0.013,0.275-0.038l20.719-5.92l19.719,5.916l0.001-0.004C41.807,63.981,41.903,64,42,64
		c0.092,0,0.185-0.013,0.275-0.038l21-6C63.704,57.839,64,57.446,64,57V5C64,4.685,63.852,4.388,63.599,4.199z M32,2
		c11.571,0,14,8.333,14,15.323c0,10.101-11.045,22.95-14,26.207c-2.957-3.256-14-16.098-14-26.207C18,4.658,25.613,2,32,2z
		 M23,35.317c2.18,3.251,4.428,6.027,6.035,7.89C26.64,43.725,25,45.18,25,46.993c0,2.28,3.009,4,7,4s7-1.72,7-4
		c0-1.813-1.64-3.268-4.035-3.787c1.607-1.863,3.854-4.639,6.035-7.89v26.339l-18-5.4V35.317z M33.353,45.019
		C35.544,45.117,37,46.08,37,46.993c0,0.815-1.948,2-5,2s-5-1.185-5-2c0-0.913,1.456-1.876,3.647-1.974
		c0.341,0.37,0.568,0.608,0.634,0.676C31.469,45.89,31.729,46,32,46s0.531-0.11,0.719-0.305
		C32.785,45.627,33.012,45.389,33.353,45.019z M2,61.674v-49.93L18.415,6.82C16.827,9.554,16,13.073,16,17.323
		c0,4.847,2.238,10.134,5,14.82v24.103L2,61.674z M62,56.246l-19,5.428V32.143c2.762-4.686,5-9.973,5-14.82
		c0-2.461-0.292-4.662-0.832-6.624L62,6.336V56.246z"/>
	<path d="M31.327,22.039c0.195,0.195,0.451,0.293,0.707,0.293s0.512-0.098,0.707-0.293l4.352-4.352
		c0.629-0.629,0.976-1.466,0.976-2.356s-0.347-1.727-0.975-2.355c-1.12-1.12-2.888-1.295-4.204-0.417l-0.855,0.57l-0.855-0.57
		c-1.316-0.877-3.084-0.703-4.204,0.417c-1.298,1.298-1.299,3.412,0,4.711L31.327,22.039z M28.39,14.39
		c0.257-0.257,0.599-0.389,0.943-0.389c0.255,0,0.513,0.073,0.737,0.223l1.41,0.94c0.336,0.224,0.773,0.224,1.109,0l1.41-0.94
		c0.527-0.35,1.233-0.281,1.68,0.167c0.251,0.251,0.39,0.585,0.39,0.941s-0.139,0.69-0.39,0.941l-3.645,3.645l-3.644-3.645
		C27.871,15.754,27.871,14.909,28.39,14.39z"/>
	<rect x="16" y="39" width="2" height="2"/>
	<rect x="12" y="39" width="2" height="2"/>
	<rect x="8" y="39" width="2" height="2"/>
	<rect x="16" y="35" width="2" height="2"/>
	<rect x="12" y="35" width="2" height="2"/>
	<rect x="8" y="35" width="2" height="2"/>
	<rect x="4" y="39" width="2" height="2"/>
	<rect x="4" y="35" width="2" height="2"/>
	<rect x="16" y="47" width="2" height="2"/>
	<rect x="12" y="47" width="2" height="2"/>
	<rect x="8" y="47" width="2" height="2"/>
	<rect x="16" y="43" width="2" height="2"/>
	<rect x="12" y="43" width="2" height="2"/>
	<rect x="8" y="43" width="2" height="2"/>
	<rect x="4" y="47" width="2" height="2"/>
	<rect x="12" y="51" width="2" height="2"/>
	<rect x="8" y="51" width="2" height="2"/>
	<rect x="4" y="51" width="2" height="2"/>
	<rect x="8" y="55" width="2" height="2"/>
	<rect x="4" y="55" width="2" height="2"/>
	<rect x="4" y="43" width="2" height="2"/>
	<path d="M13,25h-2v-3c0.552,0,1-0.448,1-1v-1h2v-2h-2v-2h-2v4H6v-4H4v14h2v-3h7v3h2v-4v-3h-2V25z M6,22h3v3H6V22z"/>
	<path d="M51,31h8c0.552,0,1-0.448,1-1v-6c0-0.552-0.448-1-1-1h-8c-0.552,0-1,0.448-1,1v6C50,30.552,50.448,31,51,31z M52,25h6v4h-6
		V25z"/>
	<rect x="45" y="34" width="10" height="2"/>
	<rect x="57" y="34" width="3" height="2"/>
	<rect x="45" y="38" width="15" height="2"/>
	<rect x="45" y="42" width="4" height="2"/>
	<rect x="51" y="42" width="9" height="2"/>
	<rect x="45" y="46" width="3" height="2"/>
	<rect x="50" y="46" width="5" height="2"/>
	<rect x="57" y="46" width="3" height="2"/>
	<rect x="45" y="50" width="15" height="2"/>
</g>
<g>
</g>
<g>
</g>
<g>
</g>
<g>
</g>
<g>
</g>
<g>
</g>
<g>
</g>
<g>
</g>
<g>
</g>
<g>
</g>
<g>
</g>
<g>
</g>
<g>
</g>
<g>
</g>
<g>
</g>
</svg>
