<?xml version="1.0" encoding="iso-8859-1"?>
<!-- Generator: Adobe Illustrator 17.1.0, SVG Export Plug-In . SVG Version: 6.00 Build 0)  -->
<!DOCTYPE svg PUBLIC "-//W3C//DTD SVG 1.1//EN" "http://www.w3.org/Graphics/SVG/1.1/DTD/svg11.dtd">
<svg version="1.1" id="Capa_1" xmlns="http://www.w3.org/2000/svg" xmlns:xlink="http://www.w3.org/1999/xlink" x="0px" y="0px"
	 viewBox="0 0 198.987 198.987" style="enable-background:new 0 0 198.987 198.987;" xml:space="preserve">
<path d="M99.493,0C45.893,0,2.285,43.607,2.285,97.208c0,19.881,5.897,38.831,17.097,55.066L5.807,188.879
	c-1.019,2.749-0.344,5.838,1.729,7.911c1.433,1.432,3.35,2.197,5.305,2.197c0.875,0,1.757-0.153,2.606-0.468l39.799-14.759
	c13.642,6.981,28.864,10.656,44.248,10.656c53.602,0,97.209-43.607,97.209-97.208S153.095,0,99.493,0z M127.69,121.707
	c-10.078,6.042-16.661,12.943-19.688,16.519c-2.122,2.507-5.224,3.945-8.509,3.945s-6.387-1.438-8.509-3.945
	c-3.027-3.576-9.61-10.476-19.688-16.519c-13.561-8.131-20.437-18.521-20.437-30.882c0-15.07,9.969-31.086,28.444-31.086
	c8.886,0,15.592,3.054,20.189,6.639c4.598-3.585,11.304-6.639,20.189-6.639c18.476,0,28.444,16.016,28.444,31.086
	C148.127,103.186,141.251,113.576,127.69,121.707z"/>
<g>
</g>
<g>
</g>
<g>
</g>
<g>
</g>
<g>
</g>
<g>
</g>
<g>
</g>
<g>
</g>
<g>
</g>
<g>
</g>
<g>
</g>
<g>
</g>
<g>
</g>
<g>
</g>
<g>
</g>
</svg>
