<?xml version="1.0" encoding="iso-8859-1"?>
<!-- Generator: Adobe Illustrator 19.0.0, SVG Export Plug-In . SVG Version: 6.00 Build 0)  -->
<svg version="1.1" id="Capa_1" xmlns="http://www.w3.org/2000/svg" xmlns:xlink="http://www.w3.org/1999/xlink" x="0px" y="0px"
	 viewBox="0 0 235 235" style="enable-background:new 0 0 235 235;" xml:space="preserve">
<path d="M180,83.5v-61H0v140h65v50h170v-129H180z M65,137.5H25V57.999l40,34.441V137.5z M51.455,47.5h77.592L90.251,80.905
	L51.455,47.5z M155,57.857V83.5h-29.448L155,57.857z M196.026,150.044c-4.108,6.978-25.623,20.95-25.623,20.95
	s-6.734-4.377-13.392-9.446c-0.44,0.992-0.938,1.947-1.485,2.875c-4.108,6.978-25.623,20.95-25.623,20.95
	s-21.595-14.032-25.676-20.95c-2.043-3.463-3.492-7.285-3.252-12.308c0.426-8.892,6.934-16.236,14.905-16.236
	c8.195,0,13.996,6.526,13.996,6.526s5.014-5.296,11.752-6.336c1.102-8.125,7.285-14.57,14.752-14.57
	c8.195,0,13.996,6.526,13.996,6.526s6.153-6.526,13.996-6.526c7.971,0,14.479,7.344,14.905,16.236
	C199.518,142.759,198.073,146.566,196.026,150.044z"/>
<g>
</g>
<g>
</g>
<g>
</g>
<g>
</g>
<g>
</g>
<g>
</g>
<g>
</g>
<g>
</g>
<g>
</g>
<g>
</g>
<g>
</g>
<g>
</g>
<g>
</g>
<g>
</g>
<g>
</g>
</svg>
