<?xml version="1.0" encoding="iso-8859-1"?>
<!-- Generator: Adobe Illustrator 16.0.0, SVG Export Plug-In . SVG Version: 6.00 Build 0)  -->
<!DOCTYPE svg PUBLIC "-//W3C//DTD SVG 1.1//EN" "http://www.w3.org/Graphics/SVG/1.1/DTD/svg11.dtd">
<svg version="1.1" id="Capa_1" xmlns="http://www.w3.org/2000/svg" xmlns:xlink="http://www.w3.org/1999/xlink" x="0px" y="0px"
	 width="182.818px" height="182.818px" viewBox="0 0 182.818 182.818" style="enable-background:new 0 0 182.818 182.818;"
	 xml:space="preserve">
<g>
	<g>
		<path d="M178.978,86.928c-6.006-10.392-18.004-16.119-33.786-16.119c-12.117,0-25.487,3.458-38.267,9.789
			c-5.054-14.26-14.156-26.031-25.649-33.151c-2.911,4.105-6.289,7.616-9.472,10.495c10.518,5.544,18.767,16.384,22.825,29.793
			c-27.86,18.675-41.027,46.373-30.118,65.275c0.665,1.164,1.433,2.246,2.252,3.286c-3.544,1.229-7.253,1.933-11.109,1.933
			c-23.017,0-41.739-23.4-41.739-52.174c0-22.824,11.804-42.218,28.153-49.281c-3.198-3.038-6.473-6.729-9.232-10.938
			C13.509,56.212,0,79.268,0,106.049c0,36.439,24.967,66.088,55.653,66.088c8.547,0,16.609-2.37,23.85-6.466
			c5.373,2.229,11.674,3.452,18.788,3.452c14.049,0,29.791-4.623,44.325-13.01c14.735-8.506,26.705-19.996,33.68-32.332
			C183.955,110.288,184.894,97.195,178.978,86.928z M76.553,146.053c-6.36-11.023,2.894-29.116,20.652-42.995
			c0.053,1.005,0.186,1.98,0.186,2.997c0,17.904-7.255,33.721-18.285,43.119C78.117,148.235,77.218,147.211,76.553,146.053z
			 M164.189,116.931c-5.78,10.214-15.918,19.86-28.537,27.142c-12.46,7.188-25.724,11.148-37.368,11.148
			c-1.841,0-3.579-0.143-5.249-0.349c11.195-12.1,18.264-29.472,18.264-48.812c0-3.925-0.378-7.731-0.934-11.473
			c11.715-6.304,23.974-9.868,34.826-9.868c6.147,0,17.13,1.186,21.733,9.165C171.465,101.741,167.168,111.7,164.189,116.931z"/>
		<path d="M57.574,60.389c0,0,26.915-15.962,25.021-36.552C81.122,7.839,65.228,8.082,57.574,15.804
			c-7.657-7.716-23.552-7.958-25.023,8.033C30.656,44.426,57.574,60.389,57.574,60.389z"/>
	</g>
</g>
<g>
</g>
<g>
</g>
<g>
</g>
<g>
</g>
<g>
</g>
<g>
</g>
<g>
</g>
<g>
</g>
<g>
</g>
<g>
</g>
<g>
</g>
<g>
</g>
<g>
</g>
<g>
</g>
<g>
</g>
</svg>
