<?xml version="1.0" encoding="iso-8859-1"?>
<!-- Generator: Adobe Illustrator 19.0.0, SVG Export Plug-In . SVG Version: 6.00 Build 0)  -->
<svg version="1.1" id="Capa_1" xmlns="http://www.w3.org/2000/svg" xmlns:xlink="http://www.w3.org/1999/xlink" x="0px" y="0px"
	 viewBox="0 0 64 64" style="enable-background:new 0 0 64 64;" xml:space="preserve">
<g>
	<path d="M59,17.5h-6.586L62.707,7.207c0.391-0.391,0.391-1.023,0-1.414l-5-5c-0.391-0.391-1.023-0.391-1.414,0L39.586,17.5H10
		c-2.414,0-4.434,1.721-4.899,4H3c-1.654,0-3,1.346-3,3s1.346,3,3,3h2v2H3c-1.654,0-3,1.346-3,3s1.346,3,3,3h2v2H3
		c-1.654,0-3,1.346-3,3s1.346,3,3,3h2v2H3c-1.654,0-3,1.346-3,3s1.346,3,3,3h2v2H3c-1.654,0-3,1.346-3,3s1.346,3,3,3h2.101
		c0.465,2.279,2.484,4,4.899,4h49c2.757,0,5-2.243,5-5v-36C64,19.743,61.757,17.5,59,17.5z M57,2.914L60.586,6.5l-23,23H34v-3.586
		L57,2.914z M2,24.5c0-0.551,0.449-1,1-1h6c0.551,0,1,0.449,1,1s-0.449,1-1,1H3C2.449,25.5,2,25.051,2,24.5z M2,32.5
		c0-0.551,0.449-1,1-1h6c0.551,0,1,0.449,1,1c0,0.551-0.449,1-1,1H3C2.449,33.5,2,33.051,2,32.5z M2,40.5c0-0.551,0.449-1,1-1h6
		c0.551,0,1,0.449,1,1s-0.449,1-1,1H3C2.449,41.5,2,41.051,2,40.5z M2,48.5c0-0.551,0.449-1,1-1h6c0.551,0,1,0.449,1,1
		c0,0.552-0.449,1-1,1H3C2.449,49.5,2,49.052,2,48.5z M2,56.5c0-0.552,0.449-1,1-1h6c0.551,0,1,0.448,1,1s-0.449,1-1,1H3
		C2.449,57.5,2,57.052,2,56.5z M62,58.5c0,1.654-1.346,3-3,3H10c-1.302,0-2.402-0.839-2.816-2H9c1.654,0,3-1.346,3-3s-1.346-3-3-3H7
		v-2h2c1.654,0,3-1.346,3-3s-1.346-3-3-3H7v-2h2c1.654,0,3-1.346,3-3s-1.346-3-3-3H7v-2h2c1.654,0,3-1.346,3-3s-1.346-3-3-3H7v-2h2
		c1.654,0,3-1.346,3-3s-1.346-3-3-3H7.184c0.414-1.162,1.514-2,2.816-2h27.586l-5.293,5.293C32.105,24.981,32,25.235,32,25.5v4h-9v2
		h10h5c0.265,0,0.519-0.105,0.707-0.293L50.414,19.5H59c1.654,0,3,1.346,3,3V58.5z"/>
	<rect x="14" y="29.5" width="7" height="2"/>
	<path d="M48.889,41.06l-0.855,0.57l-0.855-0.57c-1.316-0.877-3.083-0.703-4.204,0.417c-1.298,1.298-1.299,3.412,0,4.711
		l4.352,4.351c0.195,0.195,0.451,0.293,0.707,0.293s0.512-0.098,0.707-0.293l4.352-4.351c0.629-0.629,0.976-1.466,0.976-2.355
		c0-0.89-0.347-1.727-0.976-2.355C51.974,40.357,50.206,40.181,48.889,41.06z M51.679,44.773l-3.644,3.644l-3.644-3.644
		c-0.519-0.519-0.52-1.364,0-1.883c0.257-0.257,0.599-0.389,0.943-0.389c0.255,0,0.513,0.073,0.737,0.223l1.41,0.94
		c0.336,0.224,0.773,0.224,1.109,0l1.41-0.94c0.528-0.35,1.233-0.282,1.68,0.167c0.252,0.251,0.39,0.586,0.39,0.941
		C52.069,44.187,51.93,44.522,51.679,44.773z"/>
	<path d="M48,33.5c-6.617,0-12,5.383-12,12s5.383,12,12,12s12-5.383,12-12S54.617,33.5,48,33.5z M48,55.5c-5.514,0-10-4.486-10-10
		s4.486-10,10-10s10,4.486,10,10S53.514,55.5,48,55.5z"/>
	<rect x="14" y="34.5" width="20" height="2"/>
	<rect x="14" y="39.5" width="20" height="2"/>
	<rect x="14" y="44.5" width="20" height="2"/>
	<rect x="14" y="49.5" width="20" height="2"/>
	<rect x="14" y="54.5" width="20" height="2"/>
	<rect x="37" y="13.5" width="2" height="2"/>
	<rect x="33" y="13.5" width="2" height="2"/>
	<rect x="29" y="13.5" width="2" height="2"/>
</g>
<g>
</g>
<g>
</g>
<g>
</g>
<g>
</g>
<g>
</g>
<g>
</g>
<g>
</g>
<g>
</g>
<g>
</g>
<g>
</g>
<g>
</g>
<g>
</g>
<g>
</g>
<g>
</g>
<g>
</g>
</svg>
