<?xml version="1.0" encoding="iso-8859-1"?>
<!-- Generator: Adobe Illustrator 19.0.0, SVG Export Plug-In . SVG Version: 6.00 Build 0)  -->
<svg version="1.1" id="Layer_1" xmlns="http://www.w3.org/2000/svg" xmlns:xlink="http://www.w3.org/1999/xlink" x="0px" y="0px"
	 viewBox="0 0 480 480" style="enable-background:new 0 0 480 480;" xml:space="preserve">
<g id="XMLID_1095_">
	<g>
		<g>
			<path d="M260,410h-40c-5.523,0-10,4.478-10,10c0,5.522,4.477,10,10,10h40c5.522,0,10-4.478,10-10
				C270,414.477,265.522,410,260,410z"/>
			<path d="M280,370h-80c-5.523,0-10,4.478-10,10c0,5.522,4.477,10,10,10h80c5.522,0,10-4.478,10-10
				C290,374.478,285.522,370,280,370z"/>
			<path d="M420,79.999H50.001V68.636L370,21.578v38.421c0,5.522,4.478,10,10,10c5.522,0,10-4.478,10-10v-50
				c0-2.906-1.265-5.668-3.464-7.568c-2.198-1.899-5.112-2.746-7.991-2.325L38.695,50.085C35.187,50.75,30.001,52,30.001,60.15V470
				c0,5.522,4.477,10,10,10h379.998c16.542,0,30-13.458,30-30V110C449.999,93.458,436.541,79.999,420,79.999z M429.999,450
				c0,5.514-4.486,10-10,10H50V200h120v1.394c0,14.436,11.744,26.18,26.18,26.18c4.042,0,8.091-0.956,11.708-2.764l15.431-7.716
				c-15.894,39.375-47.23,67.398-93.431,83.461c-5.217,1.814-7.976,7.513-6.162,12.73c1.814,5.217,7.513,7.976,12.729,6.161
				c49.607-17.246,84.907-48.263,103.544-90.561c18.637,42.298,53.938,73.315,103.544,90.561c5.217,1.813,10.916-0.946,12.729-6.161
				c1.814-5.217-0.945-10.917-6.161-12.73c-46.2-16.062-77.536-44.086-93.431-83.461l15.432,7.716
				c3.615,1.808,7.664,2.764,11.707,2.764c14.437,0,26.181-11.744,26.181-26.18V200h119.999V450z M190,201.394v-27.64
				c0-3.409,2.772-6.181,6.18-6.181c0.954,0,1.91,0.225,2.764,0.652L230,183.753v7.639l-31.055,15.529
				c-0.854,0.426-1.81,0.652-2.765,0.652C192.773,207.573,190,204.8,190,201.394z M250,191.393v-7.639l31.056-15.53
				c0.854-0.426,1.81-0.652,2.765-0.652c3.408,0,6.18,2.773,6.18,6.181v27.64c0,3.408-2.773,6.18-6.181,6.18
				c-0.954,0-1.91-0.225-2.764-0.652L250,191.393z M430,180H310v-6.247c0-14.437-11.745-26.181-26.181-26.181
				c-4.043,0-8.092,0.956-11.707,2.764L240,166.392l-32.112-16.055c-3.616-1.808-7.664-2.764-11.707-2.764
				c-14.435,0-26.18,11.744-26.18,26.181V180h-120v-80h369.998c5.514,0,10,4.486,10,10H430V180z"/>
		</g>
	</g>
</g>
<g>
</g>
<g>
</g>
<g>
</g>
<g>
</g>
<g>
</g>
<g>
</g>
<g>
</g>
<g>
</g>
<g>
</g>
<g>
</g>
<g>
</g>
<g>
</g>
<g>
</g>
<g>
</g>
<g>
</g>
</svg>
