<?xml version="1.0" encoding="iso-8859-1"?>
<!-- Generator: Adobe Illustrator 19.0.0, SVG Export Plug-In . SVG Version: 6.00 Build 0)  -->
<svg version="1.1" id="Layer_1" xmlns="http://www.w3.org/2000/svg" xmlns:xlink="http://www.w3.org/1999/xlink" x="0px" y="0px"
	 viewBox="0 0 480.001 480.001" style="enable-background:new 0 0 480.001 480.001;" xml:space="preserve">
<g id="XMLID_226_">
	<g>
		<g>
			<path d="M479.864,162.241v-22.166c0-16.543-13.462-30.002-30.009-30.002H437.39L336.057,8.769
				c-11.695-11.692-30.725-11.693-42.421,0L192.304,110.073H30.01c-16.547,0-30.009,13.459-30.009,30.002v199.851
				c0,16.543,13.462,30.002,30.009,30.002h12.465l101.334,101.304c5.847,5.846,13.528,8.769,21.21,8.769
				c7.681,0,15.363-2.923,21.211-8.769l64.169-64.15c3.906-3.905,3.906-10.237,0-14.143c-3.906-3.904-10.238-3.905-14.147,0
				l-64.168,64.15c-3.897,3.894-10.235,3.894-14.13,0l-87.186-87.16h379.087c16.547,0,30.009-13.459,30.009-30.002v-171.95
				C480.047,166.07,480.047,164.147,479.864,162.241z M307.781,22.913c3.897-3.895,10.235-3.893,14.13,0l87.186,87.16H220.596
				L307.781,22.913z M459.858,339.926c0,5.514-4.488,10.001-10.003,10.001H30.01c-5.515,0-10.003-4.487-10.003-10.001V140.075
				c0-5.514,4.488-10.001,10.003-10.001h166.422c0.01,0,0.02,0,0.029,0h253.394c5.515,0,10.003,4.487,10.003,10.001V339.926z"/>
			<path d="M324.499,205.214c-6.08,0-12.013,1.337-17.422,3.796c-5.065-26.333-28.286-46.285-56.082-46.285
				c-15.224,0-29.774,6.201-40.376,16.753c-10.604-10.552-25.153-16.753-40.377-16.753c-31.49,0-57.109,25.612-57.109,57.093
				c0,15.803,6.965,30.668,19.109,40.785l60.074,50.047c5.127,4.272,11.627,6.624,18.303,6.624c6.675,0,13.175-2.353,18.302-6.624
				l25.887-21.567l27.521,22.928c4.076,3.394,9.241,5.263,14.543,5.263c5.303,0,10.468-1.869,14.545-5.264l41.103-34.243
				c9.031-7.523,14.211-18.579,14.211-30.332C366.732,224.155,347.786,205.214,324.499,205.214z M239.251,276.01l-23.137,19.275
				c-1.539,1.283-3.49,1.989-5.495,1.989c-2.004,0-3.957-0.706-5.497-1.989l-60.074-50.047c-7.569-6.305-11.91-15.571-11.91-25.42
				c0-20.452,16.644-37.091,37.103-37.091c13.13,0,25.021,6.725,31.809,17.99c1.809,3.004,5.061,4.84,8.568,4.84
				c3.508,0,6.759-1.837,8.569-4.84c6.786-11.265,18.677-17.99,31.808-17.99c16.665,0,30.799,11.043,35.468,26.191
				c-5.353-2.4-11.214-3.703-17.217-3.703c-23.287,0-42.233,18.941-42.233,42.222C227.014,258.304,231.444,268.576,239.251,276.01z
				 M339.715,262.402l-41.103,34.242c-0.975,0.813-2.505,0.812-3.478,0.001l-33.799-28.158c-0.088-0.075-0.177-0.149-0.267-0.222
				l-7.038-5.864c-4.456-3.712-7.012-9.167-7.012-14.966c0-12.253,9.971-22.221,22.227-22.221c7.694,0,14.678,3.856,18.787,10.341
				c0.109,0.192,0.226,0.381,0.348,0.564c1.825,2.93,5.034,4.715,8.492,4.715c3.507,0,6.759-1.837,8.568-4.84
				c4.068-6.75,11.193-10.781,19.058-10.781c12.256,0,22.228,9.968,22.228,22.221C346.727,253.235,344.171,258.69,339.715,262.402z"
				/>
		</g>
	</g>
</g>
<g>
</g>
<g>
</g>
<g>
</g>
<g>
</g>
<g>
</g>
<g>
</g>
<g>
</g>
<g>
</g>
<g>
</g>
<g>
</g>
<g>
</g>
<g>
</g>
<g>
</g>
<g>
</g>
<g>
</g>
</svg>
