<?xml version="1.0" encoding="iso-8859-1"?>
<!-- Generator: Adobe Illustrator 19.0.0, SVG Export Plug-In . SVG Version: 6.00 Build 0)  -->
<svg version="1.1" id="Capa_1" xmlns="http://www.w3.org/2000/svg" xmlns:xlink="http://www.w3.org/1999/xlink" x="0px" y="0px"
	 viewBox="0 0 64 64" style="enable-background:new 0 0 64 64;" xml:space="preserve">
<g>
	<path d="M56,40h-2h-4h-4h-4h-4h-4H22h-4h-4h-4H8c-2.757,0-5,2.243-5,5v14c0,2.757,2.243,5,5,5h48c2.757,0,5-2.243,5-5V45
		C61,42.243,58.757,40,56,40z M53,42v11h-2V42H53z M14,55c0.553,0,1-0.447,1-1V42h2v12c0,0.553,0.447,1,1,1h1v7h-6v-7H14z M21,55h1
		c0.553,0,1-0.447,1-1V42h4v20h-6V55z M29,42h4v12c0,0.553,0.447,1,1,1h1v7h-6C29,62,29,42,29,42z M37,55h1c0.553,0,1-0.447,1-1V42
		h2v12c0,0.553,0.447,1,1,1h1v7h-6V55z M45,55h1c0.553,0,1-0.447,1-1V42h2v12c0,0.553,0.447,1,1,1h1v7h-6V55z M45,42v11h-2V42H45z
		 M37,42v11h-2V42H37z M21,42v11h-2V42H21z M13,42v11h-2V42H13z M5,59V45c0-1.654,1.346-3,3-3h1v12c0,0.553,0.447,1,1,1h1v7H8
		C6.346,62,5,60.654,5,59z M59,59c0,1.654-1.346,3-3,3h-3v-7h1c0.553,0,1-0.447,1-1V42h1c1.654,0,3,1.346,3,3V59z"/>
	<path d="M6.966,38.331c0.256,0,0.512-0.098,0.707-0.293l4.351-4.352c1.298-1.298,1.299-3.411,0-4.712
		c-0.008-0.008-0.017-0.013-0.024-0.02V17.889l15-1.765v9.895c-0.747-0.075-1.52,0.1-2.18,0.54l-0.854,0.569l-0.855-0.569
		c-1.318-0.878-3.085-0.703-4.203,0.416c-1.299,1.3-1.298,3.413,0,4.711l4.352,4.352c0.195,0.195,0.451,0.293,0.707,0.293
		s0.512-0.098,0.707-0.293l2.136-2.136l6.835-0.894c0.35-0.04,0.687,0.065,0.948,0.299c0.264,0.233,0.408,0.556,0.408,0.907
		c0,0.922,0.396,1.801,1.087,2.41c0.591,0.521,1.35,0.805,2.128,0.805c0.133,0,0.266-0.008,0.398-0.024l5.511-0.688l-0.248-1.984
		l-5.511,0.688c-0.351,0.047-0.689-0.061-0.954-0.295c-0.266-0.234-0.411-0.558-0.411-0.911c0-0.917-0.394-1.793-1.079-2.402
		c-0.685-0.61-1.603-0.901-2.524-0.788l-4.29,0.561c1.205-1.304,1.185-3.341-0.083-4.611c-0.008-0.008-0.017-0.013-0.024-0.02V10
		c0-0.285-0.122-0.558-0.336-0.747c-0.213-0.19-0.498-0.28-0.781-0.246l-17,2c-0.503,0.06-0.883,0.486-0.883,0.993v16.02
		c-0.747-0.075-1.52,0.1-2.18,0.539l-0.854,0.569L6.111,28.56c-1.318-0.877-3.085-0.702-4.203,0.416c-1.299,1.3-1.298,3.413,0,4.711
		l4.352,4.352C6.454,38.233,6.71,38.331,6.966,38.331z M26,32.012l-1.97,1.905l-3.677-3.645c-0.519-0.519-0.535-1.363-0.016-1.882
		c0.257-0.257,0.591-0.39,0.934-0.39c0.256,0,0.51,0.073,0.733,0.223l1.408,0.939c0.336,0.225,0.772,0.225,1.108,0l1.409-0.939
		c0.528-0.351,1.233-0.279,1.68,0.166c0.519,0.52,0.518,1.36,0,1.879L25.875,32H26V32.012z M27,11.125v2.986l-15,1.765V12.89
		L27,11.125z M3.321,30.391c0.257-0.257,0.599-0.39,0.942-0.39c0.256,0,0.514,0.073,0.737,0.223l1.41,0.939
		c0.336,0.225,0.773,0.225,1.109,0l1.409-0.939c0.528-0.351,1.233-0.279,1.681,0.166c0.518,0.52,0.518,1.364,0,1.883l-3.645,3.645
		l-3.645-3.645C2.803,31.754,2.803,30.909,3.321,30.391z"/>
	<path d="M5.327,11.038c0.195,0.195,0.451,0.293,0.707,0.293c0.256,0,0.512-0.098,0.707-0.293l4.352-4.352
		c1.298-1.298,1.299-3.411,0-4.712C9.973,0.857,8.207,0.682,6.89,1.56L6.034,2.129L5.18,1.56C3.863,0.683,2.096,0.856,0.976,1.976
		c-1.299,1.3-1.298,3.413,0,4.711L5.327,11.038z M2.39,3.391c0.257-0.257,0.599-0.39,0.943-0.39c0.256,0,0.513,0.073,0.737,0.223
		l1.409,0.939c0.336,0.225,0.773,0.225,1.109,0l1.41-0.939c0.525-0.351,1.23-0.28,1.68,0.166c0.519,0.52,0.519,1.364,0,1.883
		L6.034,8.917L2.39,5.273C1.871,4.754,1.871,3.909,2.39,3.391z"/>
	<path d="M44.111,21.56c-1.318-0.878-3.085-0.702-4.203,0.416c-1.299,1.3-1.298,3.413,0,4.711l4.352,4.352
		c0.195,0.195,0.451,0.293,0.707,0.293s0.512-0.098,0.707-0.293l4.351-4.352c1.298-1.298,1.299-3.411,0-4.712
		c-0.008-0.008-0.017-0.013-0.024-0.02V5h-2v16.02c-0.747-0.075-1.52,0.1-2.18,0.54l-0.854,0.569L44.111,21.56z M46.93,23.224
		c0.528-0.35,1.233-0.279,1.681,0.166c0.518,0.52,0.518,1.364,0,1.883l-3.645,3.645l-3.645-3.645c-0.519-0.519-0.519-1.363,0-1.882
		c0.257-0.257,0.599-0.39,0.942-0.39c0.256,0,0.514,0.073,0.737,0.223l1.41,0.939c0.336,0.225,0.774,0.225,1.109,0L46.93,23.224z"/>
	<path d="M63.025,16.975c-0.008-0.008-0.017-0.013-0.024-0.02V0h-2v16.02c-0.747-0.075-1.52,0.1-2.18,0.539l-0.854,0.569
		l-0.855-0.569c-1.318-0.877-3.085-0.702-4.203,0.416c-1.299,1.3-1.298,3.413,0,4.711l4.352,4.352
		c0.195,0.195,0.451,0.293,0.707,0.293s0.512-0.098,0.707-0.293l4.351-4.352C64.322,20.389,64.323,18.275,63.025,16.975z
		 M61.611,20.272l-3.645,3.645l-3.645-3.645c-0.519-0.519-0.519-1.363,0-1.882C54.578,18.133,54.92,18,55.263,18
		c0.256,0,0.514,0.073,0.737,0.223l1.41,0.939c0.336,0.225,0.774,0.225,1.109,0l1.409-0.939c0.527-0.351,1.233-0.279,1.681,0.166
		C62.129,18.909,62.129,19.754,61.611,20.272z"/>
	<path d="M34.644,2.009c0.35-0.041,0.686,0.065,0.948,0.299C35.856,2.541,36,2.864,36,3.215c0,0.922,0.396,1.801,1.087,2.41
		c0.591,0.522,1.35,0.805,2.128,0.805c0.133,0,0.266-0.008,0.398-0.024l5.511-0.688l-0.248-1.984l-5.511,0.688
		c-0.35,0.047-0.689-0.062-0.954-0.295C38.145,3.893,38,3.569,38,3.216c0-0.917-0.394-1.793-1.079-2.402
		c-0.685-0.609-1.595-0.895-2.512-0.79L19.883,1.731l0.234,1.986L34.644,2.009z"/>
	<polygon points="55,29 55,32 52,32 52,34 55,34 55,37 57,37 57,34 60,34 60,32 57,32 57,29 	"/>
	<rect x="31" y="9" width="2" height="2"/>
	<rect x="31" y="13" width="2" height="2"/>
	<rect x="31" y="17" width="2" height="2"/>
</g>
<g>
</g>
<g>
</g>
<g>
</g>
<g>
</g>
<g>
</g>
<g>
</g>
<g>
</g>
<g>
</g>
<g>
</g>
<g>
</g>
<g>
</g>
<g>
</g>
<g>
</g>
<g>
</g>
<g>
</g>
</svg>
