<?xml version="1.0" encoding="iso-8859-1"?>
<!-- Generator: Adobe Illustrator 19.0.0, SVG Export Plug-In . SVG Version: 6.00 Build 0)  -->
<svg version="1.1" id="Capa_1" xmlns="http://www.w3.org/2000/svg" xmlns:xlink="http://www.w3.org/1999/xlink" x="0px" y="0px"
	 viewBox="0 0 64 64" style="enable-background:new 0 0 64 64;" xml:space="preserve">
<g>
	<path d="M64,10c-14.28,0-26.244-0.771-35.724-1.946c-0.024-0.007-0.041-0.026-0.066-0.031c-0.053-0.012-0.106,0.006-0.16,0.004
		c-4.381-0.548-8.236-1.181-11.52-1.867c-0.088-0.056-0.183-0.103-0.287-0.129C16.12,5.999,15.995,6,15.873,6.016
		C7.101,4.122,2.5,1.87,2.5,0h-2c0,1.49,1.121,2.868,3.316,4.132l-3.71,7.42l1.789,0.895l2.829-5.659l2.312,8.475
		c0.094,0.344,0.363,0.612,0.708,0.703c0.345,0.093,0.713-0.007,0.964-0.259l6.816-6.816l2.519,8.396
		c0.099,0.327,0.356,0.582,0.685,0.675c0.33,0.095,0.682,0.012,0.937-0.214l7.978-7.091l3.444,7.75
		c0.125,0.281,0.372,0.489,0.671,0.563c0.297,0.075,0.614,0.008,0.858-0.18l6.838-5.319c-1.657,5.013-7.124,8.534-16.347,10.54
		c-0.133-0.014-0.268-0.007-0.398,0.033c-0.057,0.018-0.101,0.059-0.154,0.086C16.563,25.374,9.042,26,0,26v2
		c0.476,0,0.938-0.006,1.406-0.01l4.72,8.496C6.303,36.804,6.638,37,7,37c0.015,0,0.029,0,0.044,0c0.379,0,0.716-0.247,0.87-0.593
		l3.448-7.761l6.979,6.106c0.238,0.209,0.561,0.292,0.873,0.224c0.311-0.068,0.57-0.28,0.699-0.57l3.532-7.948l7.023,4.39
		c0.247,0.153,0.548,0.193,0.823,0.108c0.276-0.085,0.503-0.285,0.621-0.55l3.575-8.044l5.063,2.532
		c0.311,0.154,0.678,0.139,0.973-0.044C41.82,24.669,42,24.347,42,24v-9.513l3.152,5.043c0.175,0.28,0.476,0.456,0.806,0.469
		c0.328,0.011,0.644-0.135,0.842-0.399l5.125-6.833l4.228,6.764c0.175,0.28,0.476,0.47,0.806,0.47c0.014,0,0.028,0,0.042,0
		c0.313,0,0.61-0.147,0.8-0.4l5.702-7.602C63.668,11.998,63.833,12,64,12V10z M8.512,13.074l-2.1-7.696
		c2.003,0.809,4.524,1.562,7.537,2.258L8.512,13.074z M19.508,15.211l-2.049-6.829c0.669,0.13,1.351,0.257,2.059,0.382
		c1.95,0.344,4.017,0.66,6.17,0.953L19.508,15.211z M32.394,16.426l-2.761-6.214c3.049,0.351,6.256,0.653,9.59,0.903L32.394,16.426z
		 M6.9,33.762l-3.224-5.803c2.048-0.042,4.02-0.117,5.905-0.23L6.9,33.762z M18.638,32.354l-5.585-4.886
		c2.975-0.265,5.722-0.629,8.241-1.092L18.638,32.354z M30.554,28.542l-4.964-3.103c2.913-0.755,5.433-1.68,7.573-2.767
		L30.554,28.542z M36.482,20.623c1.459-1.103,2.638-2.324,3.518-3.672v5.431L36.482,20.623z M46.075,17.233l-3.687-5.898
		c2.543,0.162,5.153,0.294,7.812,0.398L46.075,17.233z M57.075,17.233l-3.364-5.382c2.401,0.069,4.834,0.115,7.298,0.135
		L57.075,17.233z M44,37H12c-0.553,0-1,0.448-1,1v15v11h2V54h30v10h2V53V38C45,37.448,44.553,37,44,37z M13,52V39h30v13H13z
		 M29.385,41.875L28,42.798l-1.386-0.924c-1.009-0.672-2.365-0.537-3.223,0.32c-0.995,0.996-0.995,2.616,0,3.612l3.901,3.901
		C27.488,49.902,27.744,50,28,50s0.512-0.098,0.707-0.293l3.901-3.901c0.995-0.996,0.995-2.616,0-3.613
		C31.75,41.336,30.394,41.204,29.385,41.875z M31.194,44.392L28,47.586l-3.194-3.194c-0.216-0.216-0.216-0.568,0-0.784
		c0.106-0.107,0.25-0.162,0.394-0.162c0.106,0,0.213,0.03,0.307,0.092l1.939,1.293c0.336,0.224,0.774,0.224,1.109,0l1.938-1.293
		c0.22-0.145,0.516-0.116,0.701,0.069C31.41,43.824,31.41,44.176,31.194,44.392z M27.586,5.828L29,4.414l1.414,1.414l1.414-1.414
		L30.414,3l1.414-1.414l-1.414-1.414L29,1.586l-1.414-1.414l-1.414,1.414L27.586,3l-1.414,1.414L27.586,5.828z M6.414,51.172
		L5,52.586l-1.414-1.414l-1.414,1.414L3.586,54l-1.414,1.414l1.414,1.414L5,55.414l1.414,1.414l1.414-1.414L6.414,54l1.414-1.414
		L6.414,51.172z M37.414,56.172L36,57.586l-1.414-1.414l-1.414,1.414L34.586,59l-1.414,1.414l1.414,1.414L36,60.414l1.414,1.414
		l1.414-1.414L37.414,59l1.414-1.414L37.414,56.172z M54.586,5.828L56,4.414l1.414,1.414l1.414-1.414L57.414,3l1.414-1.414
		l-1.414-1.414L56,1.586l-1.414-1.414l-1.414,1.414L54.586,3l-1.414,1.414L54.586,5.828z M11,17h2v2h-2V17z M50,22h2v2h-2V22z M44,3
		h2v2h-2V3z M7,40h2v2H7V40z M51,55h2v2h-2V55z M4,60h2v2H4V60z M47,43h2v2h-2V43z M60,24h2v2h-2V24z M42,28h2v2h-2V28z M39,5h2v2
		h-2V5z M57.575,53.429c0.371-0.27,0.816-0.479,1.288-0.701c0.415-0.195,0.844-0.397,1.264-0.658
		c2.016-1.256,2.052-3.044,1.712-4.545c0.126-0.202,0.188-0.443,0.147-0.689l-2-12c-0.054-0.323-0.262-0.599-0.558-0.739
		c-0.295-0.141-0.641-0.128-0.925,0.035l-7,4c-0.279,0.16-0.465,0.444-0.498,0.765c-0.034,0.32,0.089,0.637,0.33,0.851l8.313,7.389
		c0.533,1.676,0.527,2.545-0.579,3.234c-0.32,0.2-0.68,0.368-1.06,0.547c-0.534,0.252-1.088,0.512-1.612,0.893
		c-1.085,0.791-1.953,2.234-1.446,3.681c0.301,0.854,1.051,1.54,2.114,1.933c0.354,0.131,0.722,0.225,1.089,0.317
		c0.305,0.076,0.61,0.151,0.904,0.261c0.078,0.029,0.145,0.063,0.197,0.095c-0.014,0.012-0.027,0.025-0.042,0.039
		c-1.289,1.194-2.72,2.238-4.251,3.103l0.984,1.741c1.666-0.941,3.223-2.077,4.625-3.375c0.229-0.213,0.658-0.608,0.77-1.233
		c0.165-0.924-0.471-1.826-1.58-2.242c-0.364-0.137-0.742-0.234-1.121-0.329c-0.298-0.075-0.596-0.147-0.883-0.253
		c-0.479-0.177-0.823-0.446-0.92-0.72C56.687,54.398,57.095,53.778,57.575,53.429z M58.25,36.581l1.298,7.791l-5.843-5.194
		L58.25,36.581z M55.898,31.934l1-5l1.961,0.392l-1,5L55.898,31.934z M49.141,28.515l1.715-1.029l3.001,5l-1.715,1.029
		L49.141,28.515z M44.803,34.979l0.392-1.961l5,1l-0.392,1.961L44.803,34.979z M19,56h2v2h-2V56z M23,56h2v2h-2V56z M15,56h2v2h-2
		V56z"/>
</g>
<g>
</g>
<g>
</g>
<g>
</g>
<g>
</g>
<g>
</g>
<g>
</g>
<g>
</g>
<g>
</g>
<g>
</g>
<g>
</g>
<g>
</g>
<g>
</g>
<g>
</g>
<g>
</g>
<g>
</g>
</svg>
