<?xml version="1.0" encoding="iso-8859-1"?>
<!-- Generator: Adobe Illustrator 19.0.0, SVG Export Plug-In . SVG Version: 6.00 Build 0)  -->
<svg version="1.1" id="Capa_1" xmlns="http://www.w3.org/2000/svg" xmlns:xlink="http://www.w3.org/1999/xlink" x="0px" y="0px"
	 viewBox="0 0 215.361 215.361" style="enable-background:new 0 0 215.361 215.361;" xml:space="preserve">
<g>
	<path d="M31.232,161.247l-8.13-66.77l42.886-5.221l4.757-21.568l-64.15,7.811c-4.112,0.501-7.039,4.241-6.539,8.352l13.298,109.221
		c0.24,1.975,1.256,3.772,2.822,4.999c1.326,1.038,2.956,1.595,4.623,1.595c0.302,0,0.604-0.019,0.906-0.055l121.603-14.806
		c4.112-0.501,7.039-4.241,6.539-8.352l-2.417-19.848l-27.767-6.124L31.232,161.247z"/>
	<path d="M214.183,45.544c-1.071-1.676-2.764-2.858-4.706-3.287L89.852,15.874c-4.043-0.895-8.046,1.664-8.939,5.709L70.744,67.688
		l-4.757,21.568l-8.772,39.773c-0.428,1.942-0.067,3.975,1.003,5.652c1.071,1.676,2.764,2.858,4.706,3.287l56.739,12.513
		l27.767,6.124l35.12,7.745c0.544,0.12,1.087,0.178,1.622,0.178c3.443,0,6.545-2.386,7.317-5.887l23.697-107.444
		C215.614,49.254,215.253,47.221,214.183,45.544z M176.743,125.251l-34.044-7.508l-22.352-4.93l-35.706-7.875l4.069-18.449
		l4.757-21.568l5.661-25.667l92.102,20.312L176.743,125.251z"/>
</g>
<g>
</g>
<g>
</g>
<g>
</g>
<g>
</g>
<g>
</g>
<g>
</g>
<g>
</g>
<g>
</g>
<g>
</g>
<g>
</g>
<g>
</g>
<g>
</g>
<g>
</g>
<g>
</g>
<g>
</g>
</svg>
