<?xml version="1.0" encoding="iso-8859-1"?>
<!-- Generator: Adobe Illustrator 19.0.0, SVG Export Plug-In . SVG Version: 6.00 Build 0)  -->
<svg version="1.1" id="Layer_1" xmlns="http://www.w3.org/2000/svg" xmlns:xlink="http://www.w3.org/1999/xlink" x="0px" y="0px"
	 viewBox="0 0 480 480" style="enable-background:new 0 0 480 480;" xml:space="preserve">
<g id="XMLID_2_">
	<g>
		<g>
			<path d="M476.614,90.176c-3.691-7.111-9.931-12.361-17.571-14.781L293,22.804c-0.066-0.021-0.133-0.033-0.2-0.052l-0.573-1.81
				c-4.995-15.768-21.89-24.532-37.655-19.539L20.956,75.394c-7.64,2.42-13.879,7.67-17.57,14.783
				c-3.691,7.113-4.39,15.238-1.97,22.878l109.622,346.002C115.083,471.825,126.925,480,139.657,480
				c2.993,0,6.036-0.452,9.036-1.402L240,449.679l91.301,28.917c3.004,0.951,6.046,1.403,9.042,1.403
				c12.73,0,24.574-8.176,28.618-20.941l17.751-56.029c0.026-0.082,0.041-0.165,0.065-0.247c5.597-2.813,10.16-7.292,13.101-12.961
				c3.691-7.113,4.39-15.238,1.97-22.878l-1.852-5.844l78.587-248.048C481.005,105.413,480.305,97.289,476.614,90.176z
				 M349.897,453.017c-1.665,5.256-7.298,8.18-12.556,6.512l-64.221-20.341l90.211-28.572L349.897,453.017z M382.127,380.61
				c-1.23,2.372-3.31,4.122-5.857,4.929L237.346,429.54c-0.218,0.06-0.431,0.13-0.644,0.204l-94.046,29.787
				c-5.254,1.664-10.887-1.258-12.553-6.514L20.481,107.015c-0.807-2.546-0.573-5.255,0.657-7.626
				c1.23-2.371,3.31-4.121,5.857-4.928L260.61,20.469h-0.001c5.258-1.662,10.887,1.257,12.553,6.514l109.622,346.002
				C383.591,375.531,383.357,378.239,382.127,380.61z M318.337,103.354l82.508,26.131L363.73,246.631L318.337,103.354z
				 M459.519,107.011l-70.012,220.98l-15.287-48.252l45.69-144.213c1.613-5.093,1.146-10.51-1.314-15.251
				c-2.46-4.741-6.619-8.241-11.712-9.855l-93.882-29.735c-0.657-0.208-1.318-0.345-1.978-0.415l-10.839-34.212l152.82,48.402
				c2.547,0.807,4.628,2.557,5.858,4.928C460.092,101.759,460.326,104.466,459.519,107.011z"/>
			<path d="M203.895,172.607c-8.072,2.558-14.94,7.846-19.551,14.732c-7.736-2.974-16.397-3.34-24.468-0.783
				c-9.404,2.98-17.086,9.444-21.63,18.201c-4.544,8.757-5.405,18.76-2.425,28.163c3.115,9.831,10.377,17.706,19.924,21.606
				l41.395,16.909c2.49,1.016,5.144,1.527,7.801,1.527c2.1,0,4.202-0.319,6.228-0.961c4.592-1.455,8.55-4.49,11.145-8.546
				l24.102-37.662c5.559-8.686,6.96-19.306,3.845-29.136c-2.98-9.405-9.444-17.086-18.202-21.628
				C223.302,170.486,213.299,169.629,203.895,172.607z M229.571,215.012l-24.102,37.663c-0.079,0.123-0.199,0.216-0.34,0.26
				c-0.141,0.046-0.293,0.039-0.429-0.017l-41.392-16.908c-4.035-1.648-7.105-4.977-8.422-9.131
				c-1.366-4.312-0.971-8.897,1.112-12.911c2.083-4.016,5.606-6.98,9.919-8.346c1.704-0.54,3.442-0.805,5.162-0.805
				c4.05,0,8,1.466,11.165,4.251c2.633,2.317,6.286,3.085,9.627,2.026c3.342-1.06,5.886-3.792,6.703-7.201
				c1.401-5.842,5.649-10.409,11.362-12.22c4.315-1.368,8.901-0.973,12.915,1.109c4.015,2.083,6.979,5.604,8.345,9.915
				C232.513,206.852,231.92,211.341,229.571,215.012z"/>
			<path d="M257.196,73.094c-3.33-10.512-14.592-16.357-25.106-13.026L73.116,110.42c-5.092,1.613-9.252,5.112-11.712,9.854
				c-2.461,4.742-2.928,10.158-1.314,15.252l74.105,233.902c2.697,8.511,10.591,13.962,19.079,13.961
				c1.996,0,4.026-0.302,6.027-0.936l158.974-50.35c5.092-1.613,9.252-5.112,11.712-9.854c2.461-4.742,2.928-10.158,1.314-15.252
				L257.196,73.094z M153.26,363.387l-74.105-233.9l85.687-27.139l73.289-23.212l74.105,233.9L153.26,363.387z"/>
		</g>
	</g>
</g>
<g>
</g>
<g>
</g>
<g>
</g>
<g>
</g>
<g>
</g>
<g>
</g>
<g>
</g>
<g>
</g>
<g>
</g>
<g>
</g>
<g>
</g>
<g>
</g>
<g>
</g>
<g>
</g>
<g>
</g>
</svg>
