<?xml version="1.0" encoding="iso-8859-1"?>
<!-- Generator: Adobe Illustrator 19.0.0, SVG Export Plug-In . SVG Version: 6.00 Build 0)  -->
<svg version="1.1" id="Capa_1" xmlns="http://www.w3.org/2000/svg" xmlns:xlink="http://www.w3.org/1999/xlink" x="0px" y="0px"
	 viewBox="0 0 64 64" style="enable-background:new 0 0 64 64;" xml:space="preserve">
<g>
	<path d="M49.379,26.53l5.202-3.716c0.4-0.286,0.533-0.821,0.313-1.261l-2-4C52.725,17.214,52.379,17,52,17H41.596
		C39.707,7.254,31.015,0,21,0C9.42,0,0,9.42,0,21s9.42,21,21,21c1.827,0,3.624-0.24,5.368-0.701C26.13,42.497,26,43.733,26,45
		c0,10.477,8.523,19,19,19s19-8.523,19-19C64,36.033,57.748,28.515,49.379,26.53z M50.88,23l-4.049,2.892L48.566,23H50.88z
		 M45,25.056L43.766,23h2.467L45,25.056z M43.169,25.892L39.12,23h2.314L43.169,25.892z M43.281,21l0.5-2h2.438l0.5,2H43.281z
		 M41.219,21h-3.601l1-2h3.101L41.219,21z M35.419,22.814l0.01,0.007C34.528,29.989,28.408,35.556,21,35.556
		c-8.026,0-14.556-6.53-14.556-14.556S12.974,6.444,21,6.444c7.919,0,14.369,6.361,14.54,14.24l-0.434,0.868
		C34.886,21.993,35.019,22.528,35.419,22.814z M37.251,24.122l3.37,2.407c-1.709,0.405-3.333,1.03-4.829,1.864
		C36.461,27.06,36.962,25.63,37.251,24.122z M52.382,21h-3.601l-0.5-2h3.101L52.382,21z M21,40C10.523,40,2,31.477,2,21
		S10.523,2,21,2c8.932,0,16.701,6.374,18.56,15H38c-0.342,0-0.651,0.181-0.834,0.464C35.541,10.03,28.915,4.444,21,4.444
		C11.871,4.444,4.444,11.871,4.444,21S11.871,37.556,21,37.556c2.659,0,5.165-0.645,7.393-1.764c-0.569,1.022-1.04,2.104-1.415,3.23
		C25.055,39.659,23.05,40,21,40z M45,62c-9.374,0-17-7.626-17-17s7.626-17,17-17s17,7.626,17,17S54.374,62,45,62z"/>
	<path d="M45,30c-8.271,0-15,6.729-15,15s6.729,15,15,15s15-6.729,15-15S53.271,30,45,30z M45,58c-7.169,0-13-5.832-13-13
		s5.831-13,13-13c7.168,0,13,5.832,13,13S52.168,58,45,58z"/>
	<rect x="56" y="4" width="2" height="4"/>
	<rect x="56" y="10" width="2" height="2"/>
	<rect x="56" y="14" width="2" height="4"/>
	<rect x="60" y="10" width="4" height="2"/>
	<rect x="50" y="10" width="4" height="2"/>
	<polygon points="43,8 45,8 45,6 47,6 47,4 45,4 45,2 43,2 43,4 41,4 41,6 43,6 	"/>
	<rect x="18" y="44" width="2" height="2"/>
	<rect x="22" y="44" width="2" height="2"/>
	<rect x="14" y="44" width="2" height="2"/>
</g>
<g>
</g>
<g>
</g>
<g>
</g>
<g>
</g>
<g>
</g>
<g>
</g>
<g>
</g>
<g>
</g>
<g>
</g>
<g>
</g>
<g>
</g>
<g>
</g>
<g>
</g>
<g>
</g>
<g>
</g>
</svg>
