<?xml version="1.0" encoding="iso-8859-1"?>
<!-- Generator: Adobe Illustrator 18.0.0, SVG Export Plug-In . SVG Version: 6.00 Build 0)  -->
<!DOCTYPE svg PUBLIC "-//W3C//DTD SVG 1.1//EN" "http://www.w3.org/Graphics/SVG/1.1/DTD/svg11.dtd">
<svg version="1.1" id="Capa_1" xmlns="http://www.w3.org/2000/svg" xmlns:xlink="http://www.w3.org/1999/xlink" x="0px" y="0px"
	 viewBox="0 0 414.7 414.7" style="enable-background:new 0 0 414.7 414.7;" xml:space="preserve">
<g>
	<g>
		<path d="M239.179,176.184c-3.643,1.971-5,6.521-3.03,10.166c1.971,3.643,6.52,5,10.165,3.029
			c19.395-10.488,43.705-3.24,54.192,16.154c1.357,2.51,3.939,3.934,6.604,3.934c1.204,0,2.427-0.291,3.561-0.904
			c3.644-1.971,5-6.521,3.03-10.164C299.28,171.729,265.85,161.764,239.179,176.184z"/>
		<path d="M175.521,176.184c-26.671-14.422-60.102-4.453-74.522,22.215c-1.97,3.643-0.613,8.193,3.03,10.164
			c1.134,0.613,2.356,0.904,3.561,0.904c2.666,0,5.247-1.424,6.604-3.934c10.486-19.395,34.799-26.643,54.192-16.154
			c3.646,1.971,8.194,0.611,10.165-3.029C180.521,182.705,179.165,178.155,175.521,176.184z"/>
		<path d="M414.399,266.264c-0.988-3.393-4.215-5.658-7.736-5.383c-0.61,0.043-1.217,0.064-1.825,0.064
			c-23.154,0-45.456-30.986-52.216-43.197l-16.292-30.131c-10.166-18.803-27.046-32.52-47.529-38.627
			c-10.003-2.98-20.281-3.959-30.37-3.01c-3.233-5.766-8.099-10.273-13.993-13.027c10.001-6.574,20.32-15.313,27.266-26.316
			c12.91-20.459,17.846-40.377,13.204-53.281c-2.214-6.154-6.47-10.42-12.307-12.336c-2.16-0.709-4.5-1.068-6.952-1.068
			c-16.824,0-39.639,17.533-55.482,42.639c-0.96,1.521-1.818,3.051-2.613,4.584c-0.839-1.592-1.748-3.182-2.764-4.762
			c-16.026-24.928-38.947-42.336-55.74-42.336c-2.502,0-4.883,0.371-7.077,1.105c-5.747,1.924-9.926,6.127-12.083,12.156
			c-4.544,12.697,0.52,32.662,13.547,53.406c7.698,12.26,16.605,20.922,25.156,27.059c-5.147,2.793-9.408,6.975-12.331,12.193
			c-2.472-0.234-4.954-0.354-7.439-0.354c-29.457,0-56.452,16.084-70.451,41.975l-16.262,30.076
			c-6.635,12.029-28.942,43.254-52.184,43.256c-0.628,0-1.263-0.023-1.888-0.068c-3.543-0.275-6.748,1.99-7.736,5.383
			c-0.989,3.393,0.524,7.016,3.633,8.695l58.301,31.523c-5.404,17.42,1.869,37.227,17.991,45.945
			c5.381,2.908,11.492,4.445,17.675,4.445c0,0,0.001,0,0.002,0c11.804,0,23.152-5.545,30.609-14.555l58.31,31.527
			c1.126,0.609,2.351,0.902,3.564,0.902c2.136,0,4.236-0.91,5.701-2.623c2.298-2.686,2.409-6.609,0.269-9.42
			c-14.457-18.982-0.186-56.17,6.502-68.838l4.492-8.309l4.464,8.254c6.735,12.705,21.036,49.848,6.531,68.891
			c-2.141,2.813-2.029,6.736,0.269,9.422c1.465,1.713,3.565,2.625,5.701,2.623c1.214,0,2.438-0.293,3.564-0.902l58.311-31.527
			c7.456,9.01,18.805,14.555,30.61,14.555c6.182,0,12.294-1.537,17.675-4.445c16.122-8.719,23.395-28.525,17.991-45.945
			l58.301-31.523C413.875,273.28,415.389,269.657,414.399,266.264z M215.502,156.643c1.036-4.232,4.041-7.617,7.874-9.689
			c3.833-2.072,8.242-2.529,12.417-1.283c2.397,0.715,4.541,1.955,6.334,3.596c-4.879,1.531-9.648,3.535-14.245,6.021
			c-4.604,2.49-8.88,5.389-12.836,8.648C214.956,163.391,214.522,160.643,215.502,156.643z M222.851,90.596
			c14.08-22.313,32.817-35.645,42.797-35.645c0.86,0,1.625,0.107,2.272,0.32c0.973,0.318,2.074,0.943,2.872,3.162
			c2.377,6.607-0.295,22.004-11.775,40.197c-10.414,16.5-31.257,27.426-42.402,32.35
			C214.763,121.758,213.515,105.389,222.851,90.596z M199.654,163.938c-3.923-3.232-8.201-6.143-12.836-8.65
			c-4.559-2.465-9.343-4.469-14.265-6.004c1.797-1.648,3.947-2.896,6.354-3.613c4.176-1.244,8.586-0.789,12.418,1.283
			c3.832,2.072,6.523,5.545,7.873,9.689C199.832,158.588,199.784,163.582,199.654,163.938z M156.139,98.768
			c-11.631-18.521-14.439-33.914-12.127-40.375c0.743-2.078,1.792-2.676,2.719-2.986c0.657-0.219,1.436-0.33,2.318-0.33
			c9.994,0,28.857,13.26,43.123,35.447c9.917,15.424,8.278,32.623,6.395,41.578C189.018,129.325,170.256,121.248,156.139,98.768z
			 M97.901,341.873c-3.753,0-7.3-0.889-10.541-2.641c-8.964-4.848-13.392-15.416-11.54-25.404l39.104,21.145
			C110.384,339.297,104.245,341.873,97.901,341.873z M175.834,350.854L29.189,271.563c7.773-3.51,14.838-8.787,20.98-14.543
			l126.343,68.314C175.06,333.623,174.513,342.424,175.834,350.854z M205.954,256.602l-16.321,30.186
			c-0.486,0.918-5.458,10.457-9.457,23.475l-119.4-64.561c8.723-10.498,13.996-19.908,14.498-20.818l16.292-30.131
			c11.375-21.039,33.314-34.109,57.256-34.109c10.705,0,21.377,2.711,30.862,7.84C211.221,185.536,223.006,225.065,205.954,256.602z
			 M225.038,286.733l-9.161-16.943l3.272-6.053c14.147-26.166,12.155-56.801-2.534-80.418c5.152-6.012,11.313-11.002,18.401-14.836
			c15.277-8.26,32.858-10.076,49.499-5.117c16.644,4.963,30.359,16.107,38.619,31.387l16.322,30.184
			c0.501,0.91,5.759,10.295,14.461,20.77l-119.396,64.557C230.517,297.231,225.536,287.674,225.038,286.733z M327.34,339.233
			c-3.242,1.752-6.788,2.641-10.54,2.641c-6.345,0-12.483-2.576-17.024-6.9l39.104-21.145
			C340.732,323.817,336.305,334.385,327.34,339.233z M238.865,350.854c1.32-8.428,0.774-17.229-0.68-25.52l126.338-68.31
			c6.142,5.754,13.207,11.031,20.985,14.541L238.865,350.854z"/>
	</g>
</g>
<g>
</g>
<g>
</g>
<g>
</g>
<g>
</g>
<g>
</g>
<g>
</g>
<g>
</g>
<g>
</g>
<g>
</g>
<g>
</g>
<g>
</g>
<g>
</g>
<g>
</g>
<g>
</g>
<g>
</g>
</svg>
