<?xml version="1.0" encoding="iso-8859-1"?>
<!-- Generator: Adobe Illustrator 18.1.1, SVG Export Plug-In . SVG Version: 6.00 Build 0)  -->
<svg version="1.1" id="Capa_1" xmlns="http://www.w3.org/2000/svg" xmlns:xlink="http://www.w3.org/1999/xlink" x="0px" y="0px"
	 viewBox="0 0 16.521 16.521" style="enable-background:new 0 0 16.521 16.521;" xml:space="preserve">
<g>
	<g>
		<path style="fill:#030104;" d="M15.055,10.874c0-0.109-0.033-0.222-0.119-0.313l-2.271-2.446l1.63-2.83
			c0.042-0.072,0.056-0.148,0.056-0.225h0.005V0.893C14.356,0.4,13.901,0,13.34,0H3.181C2.62,0,2.165,0.4,2.165,0.893V5.06h0.006
			c0,0.076,0.014,0.152,0.055,0.225l1.631,2.83l-2.271,2.446c-0.086,0.092-0.119,0.204-0.119,0.313H1.458v4.651
			c0,0.551,0.508,0.996,1.134,0.996h11.337c0.626,0,1.134-0.445,1.134-0.996v-4.651H15.055z M2.755,10.874l2.442-2.631L3.365,5.06
			h9.792l-1.833,3.184l2.443,2.631H2.755V10.874z"/>
		<g>
			<path style="fill:#030104;" d="M8.742,7.96l0.409-0.441H8.599H8.158H7.659L8.068,7.96c-0.95,0.161-1.679,0.985-1.679,1.981h0.583
				c0-0.79,0.643-1.433,1.433-1.433c0.791,0,1.433,0.643,1.433,1.433h0.583C10.421,8.946,9.694,8.122,8.742,7.96z"/>
			<polygon style="fill:#030104;" points="8.595,7.453 9.149,7.453 8.791,6.995 8.405,6.995 8.018,6.995 7.66,7.453 8.149,7.453 			
				"/>
		</g>
	</g>
</g>
<g>
</g>
<g>
</g>
<g>
</g>
<g>
</g>
<g>
</g>
<g>
</g>
<g>
</g>
<g>
</g>
<g>
</g>
<g>
</g>
<g>
</g>
<g>
</g>
<g>
</g>
<g>
</g>
<g>
</g>
</svg>
