<?xml version="1.0" encoding="iso-8859-1"?>
<!-- Generator: Adobe Illustrator 19.0.0, SVG Export Plug-In . SVG Version: 6.00 Build 0)  -->
<svg version="1.1" id="Capa_1" xmlns="http://www.w3.org/2000/svg" xmlns:xlink="http://www.w3.org/1999/xlink" x="0px" y="0px"
	 viewBox="0 0 228 228" style="enable-background:new 0 0 228 228;" xml:space="preserve">
<path d="M66,8.896v53H0v126h25v31.207l52.943-31.207H157v-39.048l48,27.9v-34.852h23v-133H66z M110.494,128.979
	c-5.07,8.613-31.628,25.86-31.628,25.86s-26.656-17.321-31.693-25.86c-2.522-4.275-4.311-8.993-4.014-15.193
	c0.526-10.976,8.56-20.041,18.399-20.041c10.115,0,17.277,8.056,17.277,8.056s7.595-8.056,17.276-8.056
	c9.839,0,17.873,9.065,18.399,20.041C114.805,119.986,113.021,124.685,110.494,128.979z M203,116.896h-23v16.404l-23-13.369V61.896
	H91v-28h112V116.896z"/>
<g>
</g>
<g>
</g>
<g>
</g>
<g>
</g>
<g>
</g>
<g>
</g>
<g>
</g>
<g>
</g>
<g>
</g>
<g>
</g>
<g>
</g>
<g>
</g>
<g>
</g>
<g>
</g>
<g>
</g>
</svg>
