<?xml version="1.0" encoding="iso-8859-1"?>
<!-- Generator: Adobe Illustrator 18.0.0, SVG Export Plug-In . SVG Version: 6.00 Build 0)  -->
<!DOCTYPE svg PUBLIC "-//W3C//DTD SVG 1.1//EN" "http://www.w3.org/Graphics/SVG/1.1/DTD/svg11.dtd">
<svg version="1.1" id="Capa_1" xmlns="http://www.w3.org/2000/svg" xmlns:xlink="http://www.w3.org/1999/xlink" x="0px" y="0px"
	 viewBox="0 0 444.146 444.146" style="enable-background:new 0 0 444.146 444.146;" xml:space="preserve">
<g>
	<path d="M163.09,315.913c1.875,1.875,4.418,2.929,7.071,2.929s5.196-1.053,7.071-2.929l23.095-23.096l39.769,39.76
		c1.953,1.952,4.511,2.928,7.07,2.928s5.119-0.977,7.071-2.929l59.7-59.7c9.859-9.859,15.289-22.972,15.289-36.921
		s-5.43-27.062-15.293-36.925c-9.875-9.863-22.986-15.295-36.917-15.295c-10.828,0-21.156,3.277-29.851,9.362
		c-8.694-6.083-19.023-9.36-29.854-9.36c-13.948,0-27.062,5.432-36.926,15.296c-5.925,5.925-10.255,13.031-12.771,20.867
		c-4.973-2.466-10.481-3.782-16.193-3.782c-9.75,0-18.917,3.797-25.811,10.691c-14.232,14.232-14.232,37.389,0,51.622
		L163.09,315.913z M217.312,203.739c8.606,0,16.697,3.352,22.784,9.438c3.907,3.906,10.238,3.906,14.142,0
		c6.089-6.088,14.178-9.441,22.779-9.441c8.594,0,16.685,3.354,22.779,9.441c6.082,6.082,9.431,14.171,9.431,22.779
		s-3.349,16.697-9.431,22.779l-52.63,52.63l-32.696-32.689l0.242-0.242c14.232-14.232,14.232-37.39,0-51.622
		c-6.194-6.194-14.224-9.878-22.861-10.564c0.829-1.067,1.708-2.101,2.677-3.07C200.615,207.091,208.706,203.739,217.312,203.739z
		 M139.752,240.953c3.117-3.117,7.261-4.833,11.668-4.833c4.408,0,8.552,1.717,11.669,4.833c1.875,1.875,4.419,2.929,7.071,2.929
		c2.652,0,5.196-1.054,7.071-2.929c3.117-3.117,7.261-4.833,11.668-4.833s8.552,1.717,11.668,4.833
		c6.435,6.434,6.434,16.903,0,23.338L170.161,294.7l-30.409-30.409C133.318,257.857,133.318,247.388,139.752,240.953z"/>
	<path d="M434.146,116.22h-58.407V51.124c0-3.015-1.36-5.868-3.701-7.767c-2.342-1.899-5.416-2.639-8.364-2.017L8.031,116.416
		C3.451,117.331,0,121.372,0,126.22v266.802c0,5.523,4.477,10,10,10h424.146c5.523,0,10-4.477,10-10V126.22
		C444.146,120.698,439.669,116.22,434.146,116.22z M355.739,116.22h-249.95l249.95-52.765V116.22z M424.146,383.022H20V136.22
		h404.146V383.022z"/>
</g>
<g>
</g>
<g>
</g>
<g>
</g>
<g>
</g>
<g>
</g>
<g>
</g>
<g>
</g>
<g>
</g>
<g>
</g>
<g>
</g>
<g>
</g>
<g>
</g>
<g>
</g>
<g>
</g>
<g>
</g>
</svg>
