<?xml version="1.0" encoding="iso-8859-1"?>
<!-- Generator: Adobe Illustrator 17.1.0, SVG Export Plug-In . SVG Version: 6.00 Build 0)  -->
<!DOCTYPE svg PUBLIC "-//W3C//DTD SVG 1.1//EN" "http://www.w3.org/Graphics/SVG/1.1/DTD/svg11.dtd">
<svg version="1.1" id="Capa_1" xmlns="http://www.w3.org/2000/svg" xmlns:xlink="http://www.w3.org/1999/xlink" x="0px" y="0px"
	 viewBox="0 0 216.948 216.948" style="enable-background:new 0 0 216.948 216.948;" xml:space="preserve">
<path d="M194.201,15.208h-93.504c-24.182,0-43.854,19.673-43.854,43.854v99.2H7.773c-3.748,0-6.92,2.767-7.43,6.479
	c-0.228,1.657-2.006,16.47,5.533,26.235c8.076,10.46,25.316,10.763,27.256,10.763c1.122,0,95.712-0.061,95.712-0.061l0-0.093
	c0.905,0.081,1.815,0.13,2.73,0.13c8.681,0,16.995-3.656,22.811-10.029c6.761-7.408,10.475-17.01,10.458-27.038l-0.18-104.85
	c-0.001-0.514,0.013-1.026,0.038-1.536h44.748c4.142,0,7.5-3.358,7.5-7.5V37.955C216.948,25.412,206.744,15.208,194.201,15.208z
	 M102.61,43.263c2.794,0,5.221,0.615,7.255,1.573c2.034-0.958,4.46-1.573,7.255-1.573c9.405,0,15.026,8.123,15.026,15.976
	c0,4.295-1.679,10.422-9.677,15.218c-3.028,1.816-4.983,3.862-5.879,4.92c-1.678,1.982-4.129,3.118-6.725,3.118
	c-2.597,0-5.049-1.137-6.726-3.12c-0.894-1.056-2.849-3.102-5.877-4.918c-7.999-4.796-9.678-10.923-9.678-15.218
	C87.583,51.385,93.203,43.263,102.61,43.263z M33.132,186.74c-3.631-0.005-12.546-1.254-15.383-4.929
	c-1.659-2.148-2.37-5.49-2.622-8.548h85.356c0.621,4.039,1.899,9.031,4.518,13.431C76.91,186.712,33.909,186.74,33.132,186.74z
	 M139.448,149.878H80.281c-4.142,0-7.5-3.358-7.5-7.5s3.358-7.5,7.5-7.5h59.167c4.142,0,7.5,3.358,7.5,7.5
	S143.59,149.878,139.448,149.878z M139.448,119.128H80.281c-4.142,0-7.5-3.358-7.5-7.5s3.358-7.5,7.5-7.5h59.167
	c4.142,0,7.5,3.358,7.5,7.5S143.59,119.128,139.448,119.128z M201.948,43.263h-32.264c1.051-1.556,2.256-3.026,3.613-4.384
	c5.581-5.591,13.005-8.67,20.905-8.67c4.271,0,7.747,3.475,7.747,7.747V43.263z"/>
<g>
</g>
<g>
</g>
<g>
</g>
<g>
</g>
<g>
</g>
<g>
</g>
<g>
</g>
<g>
</g>
<g>
</g>
<g>
</g>
<g>
</g>
<g>
</g>
<g>
</g>
<g>
</g>
<g>
</g>
</svg>
