<?xml version="1.0" encoding="iso-8859-1"?>
<!-- Generator: Adobe Illustrator 17.1.0, SVG Export Plug-In . SVG Version: 6.00 Build 0)  -->
<!DOCTYPE svg PUBLIC "-//W3C//DTD SVG 1.1//EN" "http://www.w3.org/Graphics/SVG/1.1/DTD/svg11.dtd">
<svg version="1.1" id="Capa_1" xmlns="http://www.w3.org/2000/svg" xmlns:xlink="http://www.w3.org/1999/xlink" x="0px" y="0px"
	 viewBox="0 0 205.724 205.724" style="enable-background:new 0 0 205.724 205.724;" xml:space="preserve">
<path d="M77.436,70.25l-9.592-6.008l5.822-21.389c0.019-0.069,0.036-0.137,0.052-0.207l1.451-6.391l4.506,10.748l19.663-8.338
	v-5.758h-0.538c-7.061,0-12.805-5.744-12.805-12.804v-7.301C85.996,5.744,91.74,0,98.801,0h7.804c7.06,0,12.804,5.744,12.804,12.804
	c0,2.761-2.238,5-5,5s-5-2.239-5-5c0-1.546-1.258-2.804-2.804-2.804h-7.804c-1.547,0-2.805,1.258-2.805,2.804v7.301
	c0,1.546,1.258,2.804,2.805,2.804h5.538c2.762,0,5,2.239,5,5v10.959l16.801,7.924l4.416-10.533l1.451,6.389
	c0.016,0.069,0.033,0.138,0.052,0.207l5.822,21.389l-9.591,6.008c-1.22,0.764-2.051,2.017-2.281,3.437s0.162,2.871,1.078,3.981
	l11.841,14.358l-31.064,30.674V90.39l14.407-34.368l-18.106-8.54l-20.622,8.744l14.32,34.161v32.313L66.798,92.027l11.842-14.358
	c0.916-1.11,1.309-2.561,1.078-3.981S78.656,71.015,77.436,70.25z M141.044,37.289l0.69,3.04l6.769,24.866
	c0.579,2.126-0.303,4.381-2.17,5.551l-7.908,4.955l11.125,13.491c1.646,1.997,1.497,4.92-0.345,6.739l-42.83,42.292
	c-0.034,0.034-0.075,0.057-0.11,0.089c-0.168,0.157-0.347,0.301-0.537,0.435c-0.063,0.044-0.122,0.092-0.186,0.133
	c-0.238,0.151-0.486,0.288-0.751,0.399c-0.007,0.003-0.015,0.004-0.023,0.007c-0.221,0.091-0.452,0.15-0.683,0.208
	c-0.086,0.022-0.17,0.059-0.257,0.077c-0.279,0.055-0.563,0.077-0.848,0.083c-0.039,0.001-0.077,0.011-0.116,0.011l-0.001,0
	l-0.001,0c-0.038,0-0.076-0.01-0.114-0.011c-0.286-0.007-0.571-0.029-0.85-0.084c-0.084-0.016-0.165-0.053-0.248-0.074
	c-0.234-0.059-0.468-0.119-0.692-0.211c-0.008-0.003-0.015-0.004-0.023-0.007c-0.266-0.111-0.514-0.248-0.751-0.399
	c-0.064-0.041-0.124-0.089-0.186-0.132c-0.19-0.133-0.369-0.278-0.537-0.435c-0.035-0.033-0.076-0.056-0.11-0.089l-42.83-42.292
	c-1.842-1.818-1.991-4.742-0.345-6.739l11.126-13.491l-7.909-4.955c-1.867-1.17-2.749-3.424-2.17-5.551L63.99,40.33l0.69-3.04
	c-21.21,4.985-37.053,24.044-37.053,46.753v89.265c0,2.761,2.238,5,5,5h15.497v22.417c0,2.761,2.238,5,5,5h99.157
	c2.762,0,5-2.239,5-5v-22.417h15.816c2.762,0,5-2.239,5-5V84.042C178.097,61.333,162.254,42.274,141.044,37.289z"/>
<g>
</g>
<g>
</g>
<g>
</g>
<g>
</g>
<g>
</g>
<g>
</g>
<g>
</g>
<g>
</g>
<g>
</g>
<g>
</g>
<g>
</g>
<g>
</g>
<g>
</g>
<g>
</g>
<g>
</g>
</svg>
