<?xml version="1.0" encoding="iso-8859-1"?>
<!-- Generator: Adobe Illustrator 17.1.0, SVG Export Plug-In . SVG Version: 6.00 Build 0)  -->
<!DOCTYPE svg PUBLIC "-//W3C//DTD SVG 1.1//EN" "http://www.w3.org/Graphics/SVG/1.1/DTD/svg11.dtd">
<svg version="1.1" id="Capa_1" xmlns="http://www.w3.org/2000/svg" xmlns:xlink="http://www.w3.org/1999/xlink" x="0px" y="0px"
	 viewBox="0 0 208.358 208.358" style="enable-background:new 0 0 208.358 208.358;" xml:space="preserve">
<path d="M116.848,86.741c0,6.986-5.684,12.669-12.669,12.669c-6.986,0-12.669-5.683-12.669-12.669s5.683-12.669,12.669-12.669
	C111.164,74.072,116.848,79.755,116.848,86.741z M204.601,67.829l-94.139,124.157c-1.192,1.805-3.145,3.061-5.401,3.319
	c-0.056,0.007-0.113,0.008-0.169,0.013c-0.156,0.014-0.311,0.032-0.47,0.037c-0.08,0.003-0.159,0.004-0.239,0.004
	c-0.001,0-0.003,0-0.004,0s-0.003,0-0.004,0c-0.562,0-1.128-0.064-1.686-0.193c-0.024-0.006-0.047-0.015-0.071-0.021
	c-0.25-0.061-0.499-0.13-0.745-0.217c-0.281-0.099-0.556-0.217-0.824-0.35c-0.223-0.11-0.436-0.232-0.644-0.362
	c-0.069-0.043-0.135-0.089-0.202-0.135c-0.159-0.106-0.312-0.218-0.461-0.335c-0.061-0.048-0.122-0.095-0.181-0.145
	c-0.413-0.346-0.783-0.732-1.107-1.152c-0.016-0.021-0.035-0.039-0.051-0.06L3.758,67.829c-3.209-4.233-4.445-9.647-3.388-14.853
	c1.057-5.207,4.304-9.711,8.911-12.359l46.326-26.625c0.01-0.006,0.021-0.01,0.031-0.015c0.055-0.031,0.114-0.055,0.169-0.085
	c0.24-0.129,0.485-0.245,0.735-0.346c0.105-0.042,0.211-0.078,0.318-0.116c0.214-0.075,0.429-0.14,0.647-0.196
	c0.11-0.028,0.219-0.056,0.329-0.079c0.25-0.051,0.501-0.088,0.754-0.113c0.074-0.008,0.148-0.022,0.222-0.027
	c0.325-0.023,0.651-0.024,0.978-0.005c0.087,0.005,0.173,0.019,0.26,0.028c0.243,0.023,0.485,0.056,0.726,0.102
	c0.112,0.022,0.222,0.048,0.333,0.075c0.225,0.054,0.447,0.12,0.667,0.196c0.102,0.035,0.203,0.067,0.304,0.106
	c0.047,0.018,0.095,0.03,0.141,0.049c0.262,0.109,0.514,0.232,0.759,0.368c0.005,0.003,0.01,0.004,0.015,0.007l0.004,0.002
	c0.001,0.001,0.003,0.001,0.004,0.002l41.176,22.946l41.171-22.943c0.253-0.142,0.516-0.27,0.787-0.383
	c0.046-0.019,0.094-0.031,0.14-0.049c0.102-0.04,0.205-0.072,0.308-0.108c0.218-0.075,0.437-0.14,0.659-0.194
	c0.114-0.028,0.227-0.054,0.342-0.077c0.237-0.046,0.475-0.078,0.714-0.101c0.09-0.009,0.18-0.024,0.27-0.029
	c0.325-0.019,0.649-0.018,0.973,0.005c0.078,0.005,0.155,0.02,0.233,0.028c0.249,0.026,0.497,0.061,0.744,0.112
	c0.113,0.023,0.224,0.052,0.336,0.08c0.215,0.055,0.428,0.119,0.638,0.193c0.109,0.038,0.218,0.075,0.325,0.118
	c0.246,0.099,0.486,0.214,0.723,0.34c0.06,0.032,0.121,0.057,0.18,0.09c0.009,0.005,0.019,0.009,0.029,0.014l46.327,26.625
	c4.605,2.647,7.854,7.151,8.91,12.358C209.045,58.181,207.81,63.595,204.601,67.829z M104.179,158.875l23.847-89.016l-23.847-15.443
	L80.332,69.859L104.179,158.875z"/>
<g>
</g>
<g>
</g>
<g>
</g>
<g>
</g>
<g>
</g>
<g>
</g>
<g>
</g>
<g>
</g>
<g>
</g>
<g>
</g>
<g>
</g>
<g>
</g>
<g>
</g>
<g>
</g>
<g>
</g>
</svg>
