<?xml version="1.0" encoding="iso-8859-1"?>
<!-- Generator: Adobe Illustrator 17.1.0, SVG Export Plug-In . SVG Version: 6.00 Build 0)  -->
<!DOCTYPE svg PUBLIC "-//W3C//DTD SVG 1.1//EN" "http://www.w3.org/Graphics/SVG/1.1/DTD/svg11.dtd">
<svg version="1.1" id="Capa_1" xmlns="http://www.w3.org/2000/svg" xmlns:xlink="http://www.w3.org/1999/xlink" x="0px" y="0px"
	 viewBox="0 0 210.967 210.967" style="enable-background:new 0 0 210.967 210.967;" xml:space="preserve">
<path d="M153.963,16.197c-4.357-5.279-10.36-8.188-16.903-8.188c-3.867,0-7.801,1.023-11.69,3.041
	c-9.683,5.023-17.698,18.725-23.05,30.347C96.967,29.775,88.952,16.073,79.269,11.05c-3.89-2.018-7.822-3.041-11.689-3.041
	c-6.543,0-12.545,2.907-16.902,8.187c-4.095,4.961-6.02,11.247-5.023,16.407c2.034,10.53,12.251,19.943,30.368,27.979
	c12.31,5.459,23.984,8.411,24.476,8.534c0.044,0.011,0.089,0.015,0.133,0.025c0.19,0.044,0.382,0.078,0.575,0.106
	c0.09,0.014,0.18,0.032,0.27,0.042c0.28,0.032,0.561,0.051,0.844,0.051c0.283,0,0.565-0.02,0.844-0.051
	c0.09-0.01,0.179-0.028,0.268-0.042c0.194-0.029,0.386-0.063,0.577-0.107c0.044-0.01,0.089-0.013,0.133-0.024
	c0.491-0.123,12.165-3.075,24.476-8.534c18.116-8.035,28.334-17.448,30.367-27.978C159.981,27.445,158.057,21.158,153.963,16.197z"
	/>
<path d="M75.025,74.212c-12.491,0-24.208,5.206-32.991,14.66L4.584,129.183c-3.731,4.017-5.324,9.626-4.261,15.005
	c1.063,5.378,4.671,9.959,9.65,12.254l18.247,8.409c0,0.05-0.005,0.101-0.005,0.151c0,13.63,11.088,24.719,24.718,24.719
	c6.021,0,11.728-2.188,16.166-6.032l7.394,3.407l2.099-70.695c0.434-14.6,6.036-27.919,15.84-37.91
	C88.406,75.711,81.796,74.212,75.025,74.212z"/>
<path d="M210.078,153l-40.439-58.612c-8.058-11.679-20.083-18.11-33.862-18.11c-19.869,0-41.407,14.219-42.189,40.568l-2.113,71.177
	c-0.053,1.748,0.729,2.931,1.393,3.614c1.292,1.331,3.206,1.862,5.017,1.326l28.003-8.269c3.544,10.6,13.557,18.264,25.334,18.264
	c14.728,0,26.71-11.982,26.71-26.71c0-2.303-0.293-4.539-0.844-6.673l30.294-8.945c1.554-0.459,2.756-1.599,3.296-3.126
	C211.216,155.976,210.998,154.334,210.078,153z"/>
<g>
</g>
<g>
</g>
<g>
</g>
<g>
</g>
<g>
</g>
<g>
</g>
<g>
</g>
<g>
</g>
<g>
</g>
<g>
</g>
<g>
</g>
<g>
</g>
<g>
</g>
<g>
</g>
<g>
</g>
</svg>
