<?xml version="1.0" encoding="iso-8859-1"?>
<!-- Generator: Adobe Illustrator 19.0.0, SVG Export Plug-In . SVG Version: 6.00 Build 0)  -->
<svg version="1.1" id="Capa_1" xmlns="http://www.w3.org/2000/svg" xmlns:xlink="http://www.w3.org/1999/xlink" x="0px" y="0px"
	 viewBox="0 0 63.914 63.914" style="enable-background:new 0 0 63.914 63.914;" xml:space="preserve">
<path d="M60.914,33.22h3v-2h-3c-2.757,0-5-2.243-5-5v-5c0-0.553-0.447-1-1-1c-3.859,0-7,3.141-7,7v4.051
	c-0.165-0.024-0.329-0.051-0.5-0.051h-6.882l-0.169-0.337c4.25-2.054,6.258-7.086,4.479-11.534l-5-12.5
	c-0.205-0.514-0.792-0.763-1.3-0.558l-15,6c-0.513,0.205-0.763,0.787-0.558,1.3l5,12.5c1.419,3.546,4.836,5.707,8.439,5.707
	c0.415,0,0.833-0.039,1.251-0.098c-1.047,0.606-1.762,1.725-1.762,3.02c0,1.561,1.034,2.871,2.448,3.321
	c-0.277,0.501-0.448,1.068-0.448,1.679c0,1.561,1.034,2.871,2.448,3.321c-0.277,0.501-0.448,1.068-0.448,1.679
	c0,1.561,1.034,2.871,2.448,3.321c-0.277,0.501-0.448,1.068-0.448,1.679c0,1.93,1.57,3.5,3.5,3.5h1.823l1.377,3.443l-4.071,1.628
	l0.742,1.857l10-4l-0.742-1.857l-4.07,1.629l-1.08-2.7h4.023c0.171,0,0.335-0.027,0.5-0.051v0.051h7
	c0.266,0,0.519-0.106,0.707-0.293l1.707-1.707h0.586v-2h-1c-0.266,0-0.52,0.105-0.707,0.293L60.5,51.22h-3.937
	c0.218-0.456,0.351-0.961,0.351-1.5c0-1.561-1.034-2.871-2.449-3.321c0.277-0.501,0.449-1.068,0.449-1.679
	c0-1.561-1.034-2.871-2.449-3.321c0.277-0.501,0.449-1.068,0.449-1.679c0-1.561-1.034-2.871-2.449-3.321
	c0.277-0.501,0.449-1.068,0.449-1.679c0-0.98-0.407-1.864-1.058-2.5h0.058v-5c0-2.415,1.721-4.435,4-4.899v3.899
	C53.914,30.079,57.055,33.22,60.914,33.22z M38.357,8.52l2.731,6.828c-1.351,0.197-2.259,0.594-3.08,0.958
	c-1.104,0.49-2.056,0.914-4.094,0.914s-2.99-0.424-4.094-0.914c-0.999-0.444-2.116-0.939-4.018-1.058l-0.588-1.471L38.357,8.52z
	 M29.843,25.349l-3.198-7.995c0.959,0.162,1.631,0.455,2.363,0.78c1.145,0.509,2.444,1.086,4.906,1.086
	c2.462,0,3.761-0.577,4.906-1.086c0.891-0.396,1.692-0.744,3.036-0.865l1.129,2.822c1.45,3.624-0.319,7.751-3.942,9.2
	C35.417,30.741,31.292,28.971,29.843,25.349z M37.914,34.72c0-0.827,0.673-1.5,1.5-1.5h8c0.827,0,1.5,0.673,1.5,1.5
	s-0.673,1.5-1.5,1.5h-6h-2C38.587,36.22,37.914,35.547,37.914,34.72z M54.914,49.72c0,0.827-0.673,1.5-1.5,1.5h-8
	c-0.827,0-1.5-0.673-1.5-1.5s0.673-1.5,1.5-1.5h6h2C54.241,48.22,54.914,48.893,54.914,49.72z M52.914,44.72
	c0,0.827-0.673,1.5-1.5,1.5h-6h-2c-0.827,0-1.5-0.673-1.5-1.5s0.673-1.5,1.5-1.5h6h2C52.241,43.22,52.914,43.893,52.914,44.72z
	 M50.914,39.72c0,0.827-0.673,1.5-1.5,1.5h-6h-2c-0.827,0-1.5-0.673-1.5-1.5s0.673-1.5,1.5-1.5h6h2
	C50.241,38.22,50.914,38.893,50.914,39.72z"/>
<path d="M31.167,57.121l-1.461-3.409l1.289-1.289c1.365-1.364,1.365-3.586,0-4.95c-0.423-0.424-0.952-0.696-1.514-0.848
	c0.263-0.498,0.418-1.048,0.418-1.626c0-0.935-0.364-1.814-1.025-2.475c-0.424-0.424-0.954-0.697-1.515-0.849
	c0.696-1.321,0.505-2.992-0.606-4.102c-0.424-0.424-0.954-0.697-1.516-0.849c0.695-1.321,0.504-2.991-0.605-4.1
	c-0.917-0.917-2.215-1.202-3.385-0.888c3.261-2.455,4.568-6.904,2.89-10.82L18.833,8.542c-0.218-0.51-0.809-0.746-1.312-0.525
	l-14.85,6.364c-0.244,0.104-0.436,0.302-0.535,0.548c-0.099,0.246-0.095,0.521,0.01,0.765L7.45,28.068
	c0.955,2.229,2.721,3.952,4.972,4.853c1.091,0.437,2.233,0.654,3.373,0.654c1.006,0,2.009-0.179,2.978-0.518l0.119,0.358
	l-4.866,4.866c-0.121,0.121-0.218,0.256-0.318,0.389l-2.865-2.864c-2.727-2.728-7.168-2.729-9.899,0
	c-0.188,0.188-0.293,0.441-0.293,0.707s0.105,0.52,0.293,0.707l3.536,3.535c1.949,1.95,1.949,5.122,0,7.071L0,52.306l1.414,1.414
	l4.479-4.479c2.729-2.729,2.729-7.17,0-9.899l-2.758-2.757c1.94-1.283,4.586-1.072,6.293,0.636l3.536,3.535l0.04-0.041
	c-0.011,0.91,0.327,1.824,1.02,2.516c0.432,0.432,0.953,0.711,1.502,0.869c-0.256,0.492-0.406,1.034-0.406,1.605
	c0,0.935,0.364,1.813,1.025,2.475c0.424,0.424,0.943,0.71,1.503,0.872c-0.681,1.318-0.486,2.975,0.618,4.078
	c0.433,0.432,0.955,0.711,1.505,0.869c-0.682,1.318-0.487,2.976,0.616,4.08c0.318,0.318,0.685,0.554,1.073,0.723l-2.532,2.418H16.5
	c-0.291,0-0.568,0.127-0.758,0.348l-0.707,0.821l1.516,1.305l0.408-0.474h2.369c0.257,0,0.504-0.099,0.69-0.276l4.457-4.251
	c0.309-0.161,0.605-0.354,0.864-0.613l2.844-2.845l1.146,2.674l-4.03,1.728l0.787,1.838l9.899-4.243l-0.787-1.838L31.167,57.121z
	 M19.553,15.298c-1.504,0.173-2.458,0.614-3.315,1.016c-1.031,0.487-1.923,0.906-3.824,0.906s-2.793-0.419-3.824-0.905
	c-0.807-0.379-1.696-0.795-3.052-0.986l11.851-5.079L19.553,15.298z M13.164,31.064c-1.756-0.702-3.132-2.046-3.877-3.783L5,17.277
	c1.196,0.128,1.928,0.466,2.738,0.848c1.091,0.513,2.327,1.095,4.676,1.095s3.585-0.582,4.676-1.095
	c0.929-0.438,1.751-0.818,3.293-0.89l1.916,4.468c1.537,3.588-0.131,7.757-3.718,9.294C16.842,31.741,14.92,31.765,13.164,31.064z
	 M15.439,39.695l5.656-5.656c0.293-0.292,0.677-0.438,1.062-0.438c0.384,0,0.767,0.146,1.061,0.438c0.584,0.585,0.584,1.536,0,2.121
	l-1.414,1.414l-4.243,4.243c-0.585,0.584-1.538,0.583-2.121,0C14.854,41.232,14.854,40.28,15.439,39.695z M17.121,45.705
	c0-0.4,0.156-0.777,0.439-1.061l1.414-1.414l4.243-4.243c0.283-0.283,0.66-0.439,1.061-0.439c0.4,0,0.777,0.156,1.061,0.439
	c0.585,0.585,0.585,1.537,0,2.122l-5.657,5.656c-0.566,0.566-1.555,0.566-2.121,0C17.277,46.483,17.121,46.106,17.121,45.705z
	 M19.682,49.594l5.657-5.656c0.283-0.283,0.66-0.44,1.061-0.44c0.4,0,0.777,0.156,1.06,0.44c0.283,0.283,0.44,0.66,0.44,1.06
	s-0.156,0.777-0.44,1.061l-1.413,1.413l-0.001,0.001l-4.245,4.245c-0.585,0.58-1.535,0.582-2.119-0.002
	C19.097,51.131,19.097,50.179,19.682,49.594z M23.925,56.665c-0.08,0.08-0.179,0.121-0.27,0.179l-0.067-0.07l-0.249,0.237
	c-0.522,0.175-1.119,0.07-1.536-0.347c-0.584-0.585-0.584-1.536,0-2.121l1.41-1.41c0.002-0.002,0.004-0.003,0.005-0.004l4.243-4.244
	c0.283-0.282,0.66-0.438,1.059-0.438c0.4,0,0.777,0.156,1.061,0.44c0.585,0.585,0.585,1.537,0,2.122L23.925,56.665z"/>
<path d="M18.598,6.168c1.581,0.527,2.841,1.787,3.368,3.368c0.136,0.409,0.517,0.684,0.948,0.684s0.812-0.275,0.948-0.684
	c0.527-1.581,1.787-2.841,3.368-3.368c0.409-0.136,0.684-0.517,0.684-0.948c0-0.431-0.275-0.812-0.684-0.948
	c-1.581-0.527-2.841-1.787-3.368-3.368c-0.135-0.409-0.517-0.684-0.948-0.684s-0.813,0.275-0.948,0.684
	c-0.527,1.581-1.787,2.841-3.368,3.368c-0.409,0.135-0.684,0.517-0.684,0.948S18.189,6.032,18.598,6.168z M22.914,3.415
	c0.492,0.701,1.104,1.313,1.805,1.805c-0.701,0.492-1.312,1.103-1.805,1.805c-0.492-0.702-1.103-1.313-1.805-1.805
	C21.811,4.728,22.422,4.116,22.914,3.415z"/>
<path d="M13.914,23.22c-1.654,0-3,1.346-3,3s1.346,3,3,3s3-1.346,3-3S15.568,23.22,13.914,23.22z M13.914,27.22
	c-0.552,0-1-0.448-1-1s0.448-1,1-1s1,0.448,1,1S14.466,27.22,13.914,27.22z"/>
<path d="M41.914,23.22c0-1.654-1.346-3-3-3s-3,1.346-3,3s1.346,3,3,3S41.914,24.874,41.914,23.22z M38.914,24.22
	c-0.552,0-1-0.448-1-1s0.448-1,1-1s1,0.448,1,1S39.466,24.22,38.914,24.22z"/>
<rect x="17.914" y="20.22" width="2" height="2"/>
<rect x="29.914" y="21.22" width="2" height="2"/>
<rect x="32.914" y="24.22" width="2" height="2"/>
<path d="M8.4,5.078l1.029-1.715l5,3L13.4,8.078L8.4,5.078z M13.967,1.537l1.896-0.632l1,3l-1.896,0.632L13.967,1.537z M28.399,6.363
	l4.999-3.001l1.029,1.715l-5,3.001L28.399,6.363z M51.914,2.22h2v4h-2V2.22z M51.914,8.22h2v2h-2V8.22z M51.914,12.22h2v4h-2V12.22z
	 M55.914,8.22h4v2h-4V8.22z M45.914,8.22h4v2h-4V8.22z"/>
<g>
</g>
<g>
</g>
<g>
</g>
<g>
</g>
<g>
</g>
<g>
</g>
<g>
</g>
<g>
</g>
<g>
</g>
<g>
</g>
<g>
</g>
<g>
</g>
<g>
</g>
<g>
</g>
<g>
</g>
</svg>
