<?xml version="1.0" encoding="utf-8"?>
<!-- Generator: Adobe Illustrator 19.2.1, SVG Export Plug-In . SVG Version: 6.00 Build 0)  -->
<svg version="1.1" id="Layer_1" xmlns="http://www.w3.org/2000/svg" xmlns:xlink="http://www.w3.org/1999/xlink" x="0px" y="0px"
	 viewBox="0 0 144 144" style="enable-background:new 0 0 144 144;" xml:space="preserve">
<style type="text/css">
	.st0{fill:#8F3131;}
	.st1{fill:#C3DEE0;}
	.st2{fill:#9F8152;}
	.st3{fill:#9F6D51;}
	.st4{fill:#91D3C8;}
	.st5{fill:#FFFFFF;stroke:#F37061;stroke-width:0.2062;}
	.st6{fill:#683F34;}
	.st7{fill:url(#SVGID_1_);}
	.st8{fill:url(#SVGID_2_);}
	.st9{fill:none;stroke:#B5B534;stroke-width:0.5564;}
</style>
<path class="st0" d="M143.8,140.1c-0.3-0.3-0.5-0.6-0.8-0.8c-9.9-10.5-20.5-19.9-31.7-27c-27.4-17.3-66-32.3-83-35.8
	c-16.9-3.5-16.9-3.5-16.9-3.5s80,18.3,122.7,66.9L143.8,140.1z"/>
<g>
	<g>
		<path class="st1" d="M71.8,57c2,1.5,3.1,3.8,4.9,5.4c7.2,6.5,10.9,14.1,16.1,22.1c0.7,1.1,1.6,2.1,2,3.3c0.4,1.3,2.7,6-0.1,5.6
			c1,1,1.2,3,1.4,4.3c0.1,1.3,0.4,2.8-1.4,2.8c0.2,0-0.3,2.7-2.1,2.5c-1-0.1-2.5-0.9-3.2-1.7c0.4,0.5-2.1,0.2-2.5,0.1
			c-1.2-0.6-2-1.9-2.8-3c0.7,0.9-1.2,1.2-1.6,1c-1.4-0.5-2.4-2.6-2.7-3.9c-0.5-1.7-1.3-3.1-1.8-4.7c-0.8-2.2-2.1-4.2-2.9-6.5
			c-0.5-1.5-1.2-2.5-2-3.9c-0.3-0.5-0.4-1.8-1.6-3.2c-0.1,0.2-0.2,0.4-0.3,0.7c-1.6,0.3-2.2-2.6-3.2-3.5c-1.5,0-2.3-1.7-2.7-2.9
			c-0.3-1.1-0.2,1.9-2.7-2.1c0.1,0.3-1.2-0.5-1.3-0.5c-0.3-0.2-0.2-0.6-0.5-0.8c-0.3-0.3-0.4,0-0.7-0.2c-0.2-0.1-1.4-0.2-1.2-0.7
			c-0.2,1-1.4,0.3-1.7-0.2c-0.6,0.6-1.1-0.3-1-0.4c-1.6,1-3.4-0.7-3.6-2.1c-0.2-1.3,0-3.1,0.7-4.3c1.6-2.5,4.5-4.2,7.2-5.1
			c1.1-0.4,2.7-1.1,3.7-1.3C67.6,53.2,69.5,55.2,71.8,57z"/>
		<path class="st1" d="M66.3,34.5c-0.3,0.1-0.4,0.2-0.7,0.3c1.1-0.1,4.5,2.6,2,3.6c1.1,0.3,3.3,1.5,3.3,2.7c-0.6,0.3-1,0.6-1.6,0.3
			c1.1,0.6,3.2,2.4,3.6,3.6c-0.2,0.1-0.4,0.1-0.5,0.2c0.7,0.5,4.6,3.2,0.9,3.2c0.6,0.3,1.6,1.4,0.8,2.2c-1.2,0.5-2.7-0.1-3.9-0.3
			c0.8,0,0.7,0.4,0.5,0.9c-3.5,2-6.9-3.2-8.4-5.4c-1.7-2.5-3.2-4.8-4.5-7.5c-1.1-2.2-5.9-7.1-4.8-9.7C54.3,25.5,65.5,32.1,66.3,34.5
			z"/>
		<path class="st2" d="M51.3,67.7c0,0,0.4,1.2,1,1.7c0.6,0.5,0.7-0.8,0.4,2.9c-0.3,3.7-1.4,12.5-1.4,12.5s-0.3,1.4-1.6,1.6
			c-1.3,0.1-3.7,1.2-3.7,1.2s-0.4,1.3-0.7,1.9c-0.3,0.6-1,1.3,0,2.5c0.6,0.6,1.6,0.6,1.6,0.6s-0.5-0.6-0.5-1.2c0-0.5,0-0.5,0-0.5
			s0.7,1.3,1.2,1.6c0.6,0.3,1.1-0.4,1.1-0.4s-1.1-0.7-0.6-0.9c0.5-0.1,0.8-0.6,0.7-0.8c-0.1-0.2-0.3-0.6-0.3-0.6s0.1,0.1,0.5-0.2
			c0.4-0.3,0.5-0.8,0.5-0.8s0.6,0,0.9-0.6c0.3-0.6,0.3-0.8,0.3-0.8s0.4,0.5,0.7,0.1c0.4-0.4,0.5-0.8,0.5-0.8s0.1,0,0.6-0.3
			c0.5-0.3,0.6-0.8,0.6-0.8s0.4,0.4,0.8,0.2c0.4-0.3,0.5-0.6,0.5-0.6s0.9,0.2,1,0c0.2-0.2,0.2-0.2,0.2-0.2s0.3,0.2,0.4,0.5
			c0.1,0.2,0.1,0.9,0.1,0.9s0.8-1.1,0.3-1.7c-0.4-0.6-1-0.9-1-0.9s-0.1-0.3-0.4-0.4c-0.3-0.2-0.6-0.2-1,0c-0.4,0.2-1,0-0.8-0.8
			c0.2-0.9,0-1.3,0.5-1.4c0.5-0.1,1.2,0.4,1.2,0.4s0-0.6-0.5-1c-0.5-0.4-1-0.5-1-0.5l1.2-8.7c0,0,0.5-1,0.4-1.4
			c-0.1-0.5-0.8-0.7-0.6-1.2c0.2-0.6,0.5-1.1,0.1-1.4c-0.3-0.4-1.6-0.7-1.6-0.7L51.3,67.7z"/>
		<path class="st2" d="M44.2,65.3l-3.1,10.3c0,0-0.2,1.1-2.7,1.7c-2.5,0.6-3.7,0.8-3.9,1.4c-0.3,0.6-0.3,1.2-0.3,1.2
			s-0.8,0.7-0.8,0.9c0,0.2,0,1.1,0.7,1.6c0.7,0.5,0.7,0.5,0.7,0.5s0.3,0.8,0.6,1.1c0.3,0.4,1,0.7,1.4,0.8c0.3,0.1,0.3,0.1,0.3,0.1
			s-1-0.6-0.9-1c0.1-0.4,0.1-0.5,0.6-0.9c0.5-0.3,0.4-0.8,0.3-0.9c0-0.1,0-0.1,0-0.1s0.7,0.2,0.9-0.3c0.1-0.4,0.2-0.9,0.2-0.9
			s0.3,0.3,0.8-0.2c0.4-0.6,0.3-0.8,0.3-0.8s0.6,0.3,1-0.2c0.4-0.5,0.5-0.8,0.5-0.8s0.2,0.6,0.7,0.1c0.5-0.4,0.6-0.9,0.6-0.9
			s0.4,0.4,0.7,0.1c0.4-0.2,0.4-0.6,0.4-0.6s0.3,0.8,0.7,0.7c0.4-0.1,0.5-0.6,0.5-0.6s0.5,0.2,0.7,0.5c0.2,0.3,0.2,0.3,0.2,0.3
			s0.5-0.9,0.2-1.2c-0.3-0.3-0.9-0.6-0.9-0.6S44,76,43.7,75.9c-0.3-0.1-0.2,0.1-0.6-0.2c-0.4-0.2-0.7-0.8,0-1.6
			c0.7-0.8,0.9-1.2,1.8-0.9c0.8,0.3,0.7,0.4,0.7,0.4s0-0.8-0.7-1.2c-0.7-0.4-1.5-0.3-1.5-0.3l1.9-6.4L44.2,65.3z"/>
		<path class="st3" d="M0.2,17.6c0,0,2.2-0.3,5.2-0.3c3,0,4.9,0.5,4.9,0.5l1.9-1.6L5.6,15l-3.4,1.5L0.2,17.6z"/>
		<path class="st0" d="M14.2,30.9c1,12.6,8,24.6,19.3,30.6c1.7,0.9,3.4,1.7,5.2,2.3c1.5,0.5,2.9,1.2,4.5,1.3
			c0.7,0.1,0.9,0.4,1.5,0.8c0.7,0.5,1.6,0.9,2.3,1.3c0.7,0.4,1.5,0.7,2.2,0.9c0.6,0.2,1.1,0.3,1.7,0.3c1.3,0,2.3,0,3.2-1.1
			c0.6-0.7,0.9-1.7,1.1-2.6c0.4-2.2,0-4.6-0.5-6.8c-0.3-1.5-0.7-3-1.1-4.6C51.3,44.6,44.6,36,39.1,29c-4.6-5.8-8.1-11.9-13.3-16.9
			c-2.7-2.6-7.1-2.3-10.1-0.1c-2.4,1.7-3.7,4.9-3.2,7.8c0.3,1.7,1.3,3.1,1.5,4.9C14.3,26.7,14,28.8,14.2,30.9z"/>
		<path class="st4" d="M36.1,20c3.4,1.2,7.4,1.6,10.8,3c6.1,2.4,9.6,7.1,13.3,12.2c2.5,3.4,4.8,7.5,5.7,11.6c0.4,1.9,3,7.3,1.8,9
			c-1.2,1.7-3.9,2.3-5.6,2.1c1.6,0.2,2.8,1.7,3,3.6c-0.7,0.4-1.5,0.4-2.2,0.2c-0.1-0.1-0.1-0.1,0,0c1.7,1,2,2.3,0,2.7
			c-1.4,0.2-4.7-0.9-5.9-1.7c0.1,0.2,0.2,0.5,0.4,0.7c-0.1-0.2-3.5-0.7-4.1-1c-2.4-1.1-4.1-3.3-5.3-5.6c-2.1-3.7-3-7.8-4.3-11.8
			c-1.2-3.7-2.9-6.5-5.1-9.7c-2.2-3.1-4.2-9.1-7.7-10.7c-1.8-0.9-5.9,0-6.7-2.3c-0.2-0.6,0.4-1.4,0.4-2.1c0-0.8-0.5-1.8-0.8-2.6
			c-0.5-1.5-1-3.1-1.3-4.6c0.3,2,5.9,0.6,6.4-0.9c-0.7,2.3,4.7,6.8,6.4,7.6C35.6,19.8,35.9,19.9,36.1,20z"/>
		<path class="st5" d="M18.3,21.4c0.4-0.4,0.7-1,0.7-1.7c0.2-2.4-3.3-4.4-5.4-4.5c-3.1-0.1-4.9,2.6-2.5,5
			C12.6,21.6,16.6,23,18.3,21.4z"/>
		<path class="st5" d="M18.8,15.3c1.3-1.3,1.5-3.5,0.3-5C17.3,8,11.4,8.5,10,11.2C7.6,15.5,16,18.4,18.8,15.3z"/>
		<path class="st6" d="M0.2,17.6c0,0,0.7-2.3,3.1-3.4c2.4-1.1,5-2,5-2l4,1.3l0,2.7c0,0-4.2-1.1-8,0C0.4,17.2,0.2,17.6,0.2,17.6z"/>
		<path class="st1" d="M8.5,12.6c0.8,0.7,2.4-0.2,3.3-0.7c1.7-0.9,2.8-1.7,4.7-1.3c3.4,0.7,5.9,3.8,9.5,3.7c5.2-0.1,2.6-5.8-0.1-7.4
			c-1.8-1.1-5.5-2.2-7.6-1.9c-2.2,0.2-4.6,0.8-6.5,2C10.7,7.7,6.8,11.1,8.5,12.6z"/>
		<path class="st1" d="M20.6,26.8c-0.7,2.4,0.5,5.4,1,7.8c0.5,2.7,0.9,2.8,1.8,3.2c1.3,0.7,1,2.1,1.7,3.5c1.1,2.3,3.2,3.6,5.6,4.4
			c1.6,2.9,4.2,5.8,6.8,6.4c-0.2,0,1.8,2.6,2.1,2.9c1.8,1.4,3.5,2.2,5.4,3.2c2.5,1.3,4.4,3.3,7.1,4.4c1.6,0.6,3.3,0.6,4.8,1.4
			c0-0.3,0.2-0.9,0.1-1.2c2,2.7,10.2,2,6.3-1.4c0.6,0.4,1,0.3,1.6,0.4c0.8-2.1-1.3-2.7-2.3-4.1c1.5,1,2.2-0.4,1.4-0.9
			c-1.2-0.8-2.2-1.9-2.8-2.7c0.2-0.1,0.5-0.2,0.7-0.3c0.3-1.1-1.6-2.8-3.3-3.7c0.3-0.1,0.6-0.1,0.7-0.4c0-1.8-2.8-2.9-4-3.7
			c3-0.1,1.6-2.7-0.2-2.4c0.4,0,0.6,0,0.9-0.1c-0.3-0.4-0.4-0.8-0.5-0.9c0.1,0,0.3-0.1,0.4-0.2c-0.1-1.1-1.2-1.6-2.2-1.6
			c2-0.6-0.3-2.3-1.4-2.4c0.5-1.3-0.5-2.3-1.8-1.8c1.9-0.9-0.7-2.3-1.8-2.3c0.9-1.9-1.7-2.2-3-2.3c0.2-1.3-1.1-2.4-2.5-2
			c0.9-2.1-8.3-5.1-9.9-4.2c1.6-0.9-4.2-2.9-4.7-3c-3.6-0.3-6.6,0.1-7.9,4C20.6,26.6,20.6,26.7,20.6,26.8z"/>
		
			<linearGradient id="SVGID_1_" gradientUnits="userSpaceOnUse" x1="80.9412" y1="205.3511" x2="88.1089" y2="205.3511" gradientTransform="matrix(0.9588 -0.2842 0.2842 0.9588 -101.8052 -92.6636)">
			<stop  offset="0" style="stop-color:#F9F2D3"/>
			<stop  offset="0.1743" style="stop-color:#EADFBD"/>
			<stop  offset="0.5278" style="stop-color:#D1C19B"/>
			<stop  offset="0.8157" style="stop-color:#C3B088"/>
			<stop  offset="1" style="stop-color:#BEAA82"/>
		</linearGradient>
		<path class="st7" d="M34.9,83.8c-0.1-1.4,0.2-3.4,1.6-4.2l0,0c1.6-0.9,2.5-1.6,3.6-3l0,0l0.2,0.1c-1.2,1.4-2,2.2-3.7,3.1l0,0
			c-1.3,0.7-1.6,2.6-1.5,4l0,0l0,0L34.9,83.8L34.9,83.8z"/>
		
			<linearGradient id="SVGID_2_" gradientUnits="userSpaceOnUse" x1="89.6916" y1="216.3985" x2="93.9931" y2="216.3985" gradientTransform="matrix(0.9588 -0.2842 0.2842 0.9588 -101.8052 -92.6636)">
			<stop  offset="0" style="stop-color:#F9F2D3"/>
			<stop  offset="0.1743" style="stop-color:#EADFBD"/>
			<stop  offset="0.5278" style="stop-color:#D1C19B"/>
			<stop  offset="0.8157" style="stop-color:#C3B088"/>
			<stop  offset="1" style="stop-color:#BEAA82"/>
		</linearGradient>
		<path class="st8" d="M46.2,90.9c0.4-0.8,0.4-2,1.1-2.7l0,0c0.3-0.4,0.8-0.5,1.2-0.7l0,0c0.4-0.2,0.6-0.4,0.7-1l0,0l0.2,0
			c0,0.6-0.4,0.9-0.8,1.1l0,0c-0.4,0.2-0.8,0.4-1.1,0.7l0,0c-0.6,0.7-0.7,1.8-1.1,2.7l0,0l0,0L46.2,90.9L46.2,90.9z"/>
	</g>
	<path class="st9" d="M15.7,12.4c0.2,0.6-0.2,1.1-0.7,1.3c-0.6,0.2-1.1-0.2-1.3-0.7c-0.2-0.6,0.2-1.1,0.7-1.3
		C14.9,11.5,15.5,11.8,15.7,12.4z"/>
</g>
</svg>
